<svg width="300" height="301" viewBox="0 0 300 301" fill="none" xmlns="http://www.w3.org/2000/svg">
<path d="M236.7 80.8051C236.55 76.3051 235.65 71.6551 231.6 69.5551C223.2 64.9051 209.85 67.3051 199.95 68.0551C197.4 68.3551 143.85 72.7052 98.5504 71.6552C96.0004 71.6552 93.6004 72.1051 91.3504 73.3051C88.2004 75.4051 87.9004 79.9051 87.9004 83.2051C88.0504 91.3051 88.5004 99.5551 89.4004 107.505C89.4004 107.655 93.9004 177.106 94.3504 219.256C94.3504 220.906 94.3504 220.756 95.2504 221.956C99.1504 226.906 115.8 233.206 123.75 234.856C138.45 238.156 159.15 240.556 164.1 239.356C169.05 240.106 174.9 240.556 178.35 240.556C178.35 240.256 178.2 239.956 178.2 239.806C177.9 236.956 178.95 229.606 181.05 227.506C180.75 227.206 180.3 226.906 180 226.756L179.7 227.056C174.6 229.906 166.35 229.906 166.2 222.856C166.05 219.556 168.45 216.706 168.75 213.706H168.9C166.2 207.856 168.45 203.806 171.15 202.756C170.55 201.856 168.15 198.856 167.4 198.106C166.2 196.606 166.5 194.506 168 193.456C167.7 193.156 168.45 194.206 161.85 184.606C165.6 181.906 164.4 182.806 167.25 180.556C174.15 190.306 173.25 188.806 173.4 189.706C174.6 189.406 175.8 190.006 176.55 190.906C178.05 192.856 180.3 195.556 182.7 198.556L183 198.406C189 194.956 198 196.756 203.85 198.256C211.5 200.056 219.15 199.906 225.75 204.406L226.65 204.106C225.15 193.306 226.8 182.056 227.4 171.256C230.55 103.755 237 97.3051 236.7 80.8051Z" fill="white"/>
<path d="M199.95 67.9052C187.05 66.8552 121.35 61.1551 108.6 59.2051C106.5 58.9051 103.5 58.0051 101.4 59.2051C98.9997 60.5551 98.6998 65.2052 98.6998 67.6052C98.5498 68.8052 98.5498 70.1552 98.5498 71.6552C138.3 71.6552 199.95 68.5052 199.95 67.9052Z" fill="#FCD6D0"/>
<path d="M94.3497 220.905C94.1997 220.755 94.3497 220.605 94.4997 220.605L94.1998 220.305C94.0498 208.605 92.8498 170.955 92.6998 167.355L92.9997 167.055C89.9997 162.105 87.8997 156.705 86.8497 151.005H86.5497C84.8997 172.755 80.9997 210.105 81.8997 227.955C82.1997 230.205 82.3497 232.605 84.2997 234.105C86.9997 235.905 91.7998 235.155 94.7998 235.155C102.9 235.005 115.2 234.855 123.15 235.155L123.3 234.705C119.1 233.955 114.9 232.605 110.85 230.805C106.95 229.005 96.5997 225.555 94.3497 220.905Z" fill="#FCD6D0"/>
<path d="M226.35 204.556C226.05 204.556 225.6 204.256 225.6 203.956C224.4 195.706 225.15 187.156 225.75 178.906C226.8 164.356 227.4 137.355 232.2 108.105C233.55 99.2549 235.95 89.9549 235.8 80.8049C235.8 75.4049 234.3 72.1049 231.15 70.3049C224.1 66.4049 212.85 67.6049 203.85 68.5049C192.3 69.7049 139.05 73.4549 98.5498 72.4049C96.2998 72.4049 93.8998 72.8549 91.7998 73.9049C89.0998 75.5549 88.7998 79.4549 88.7998 83.0549C88.7998 90.5549 89.2498 98.5049 90.2998 107.355C90.4498 107.805 90.5997 122.055 90.8997 123.405C91.0497 123.855 90.7497 124.455 90.1497 124.455C89.2497 124.455 89.2498 124.455 88.9498 113.505C88.9498 110.805 88.7998 107.955 88.7998 107.655C87.7498 98.8049 87.2998 90.8549 87.2998 83.2049C87.2998 80.5049 87.2998 74.9549 91.0498 72.7049C93.4498 71.5049 95.9998 70.9049 98.5498 71.0549C140.25 72.1049 193.2 68.2049 203.7 67.1549C212.85 66.2549 224.4 65.0549 231.9 69.1049C235.5 71.2049 237.3 74.9549 237.3 80.9549C237.45 90.2549 235.05 99.5549 233.55 108.405C228.75 137.955 228.15 164.956 227.1 179.206C226.5 187.306 225.9 195.856 226.95 203.956C227.25 204.256 226.8 204.556 226.35 204.556Z" fill="#000001"/>
<path d="M177.9 239.805C163.95 239.505 147 236.655 135.75 228.405C132.3 225.855 129.6 222.105 128.1 217.605C127.65 216.255 127.8 211.455 125.25 210.855C121.8 210.255 119.7 214.455 106.35 217.605C105.6 217.755 98.1 218.205 95.25 219.255C95.1 208.005 94.2 178.605 93.75 167.355C93.75 166.905 93.3 166.605 93 166.605C92.55 166.605 92.25 166.905 92.25 167.355C92.55 177.855 93.6 209.505 93.75 220.155C93.75 220.155 93.6 220.305 93.6 220.755C93.6 220.905 93.6 220.905 93.6 221.055C95.4 224.955 101.85 227.655 106.95 229.905C110.7 231.555 114.75 233.655 123.3 235.605C138.3 239.055 158.85 241.305 163.95 240.105C168.15 240.705 172.95 241.155 177.9 241.305C178.8 241.455 178.8 239.955 177.9 239.805ZM123.6 234.255C115.2 232.455 111.15 230.205 107.55 228.705C103.05 226.755 96.9 224.055 95.1 220.905C96.9 220.005 105.75 219.405 106.65 219.105C111.45 217.905 115.5 216.555 119.1 214.755C120.75 214.005 123.3 212.055 124.95 212.355C126 212.505 126.3 217.005 126.75 218.055C128.4 222.855 131.25 226.905 135 229.605C141.6 234.555 149.85 237.405 157.05 238.905C148.5 238.605 134.4 236.655 123.6 234.255Z" fill="#000001"/>
<path d="M72.1502 43.4549C70.5002 38.9549 68.5502 32.5049 64.0502 29.9549C59.4002 27.4049 53.8502 28.0049 49.6502 24.2549C47.1002 21.8549 45.7502 13.755 42.3002 10.155C40.2002 7.90498 37.0502 7.75497 32.7002 10.605C35.4002 19.4549 38.1002 29.5049 47.7002 33.8549C51.9002 35.6549 57.0002 35.9549 60.6002 39.1049C64.8002 42.7049 65.1002 48.2549 68.2502 52.3049C69.7502 54.1049 72.3002 54.5549 73.5002 52.3049C74.8502 49.6049 73.0502 46.0049 72.1502 43.4549Z" fill="#E2978A"/>
<path d="M51.3 53.6553C46.05 53.2053 41.1 55.7553 35.85 53.9553C32.85 52.9053 28.95 47.2053 24.6 44.8053C21.45 43.1553 18.15 43.1553 15 47.9553C21 55.1553 27.3 63.4053 37.8 63.5553C42.45 63.7053 47.25 61.9053 51.75 63.4053C56.85 65.0553 59.4 70.0053 63.9 72.5553C66 73.7553 68.4 73.1553 68.7 70.4553C69 67.4553 66.15 64.7553 64.2 62.8053C60.9 59.3553 56.55 54.2553 51.3 53.6553Z" fill="#E2978A"/>
<path d="M91.8003 24.105C92.5503 24.405 96.0003 23.355 96.0003 22.755C95.7003 21.555 95.4003 20.205 94.8003 19.005C93.9003 16.455 93.6003 15.2551 94.0503 13.9051C94.8003 11.6551 97.3503 10.305 99.7503 11.205C102.15 11.955 103.95 14.2051 104.4 16.755C105 20.655 102.75 23.655 99.6003 25.755C98.2503 26.655 95.7003 27.555 95.1003 29.355C94.6503 30.555 95.8503 34.455 97.3503 35.055C98.1003 35.355 99.0003 35.2052 99.7503 34.9052C101.7 34.4552 100.05 30.405 101.4 28.755C103.35 26.505 106.65 25.905 108.45 23.205C112.5 17.055 107.85 8.05509 99.9003 7.30509C92.5503 6.70509 87.4503 11.055 89.1003 17.955C89.2503 19.305 90.0003 23.655 91.8003 24.105Z" fill="#E2978A"/>
<path d="M99.8997 37.4553C99.4497 37.6053 98.0997 37.6053 97.9497 38.2053C97.6497 38.5053 97.6497 38.9554 97.7997 39.1054C98.2497 40.6054 98.0997 41.8054 99.2997 41.8054C100.8 41.5054 101.4 41.6554 102 40.9054C102.3 40.6054 102.3 40.3053 102.15 40.0053C102 39.5553 101.85 38.9553 101.85 38.5053C101.4 37.7553 100.65 37.3053 99.8997 37.4553Z" fill="#E2978A"/>
<path d="M71.1003 106.305C70.3503 106.005 69.6003 106.605 69.4503 107.205C69.3003 107.505 69.3003 107.505 69.1503 107.805C69.0003 108.105 69.0003 108.555 69.3003 108.705C69.4503 109.305 70.6503 109.305 71.5503 109.605C71.8503 109.755 72.3003 109.455 72.4503 109.155C72.6003 108.855 72.7503 108.405 72.7503 107.955C72.9003 107.655 72.9003 107.205 72.6003 107.055C72.4503 106.455 71.4003 106.455 71.1003 106.305Z" fill="#E2978A"/>
<path d="M63.3001 102.555C62.4001 100.155 63.3001 97.4552 61.9501 94.9052C58.8001 89.3552 50.2501 89.3552 46.5001 95.0552C43.0501 100.305 44.2501 106.005 50.2501 107.655C51.3001 107.955 54.9001 109.005 56.1001 107.955C56.5501 107.505 57.3001 104.505 56.7001 104.205C54.7501 103.605 53.1001 103.455 52.3501 103.305C51.4501 103.305 50.2501 102.855 49.3501 102.105C47.8501 100.605 48.0001 98.2052 49.5001 96.7052C51.1501 95.2052 53.4001 94.7552 55.5001 95.5052C58.6501 96.5552 60.1501 99.5552 60.4501 102.855C60.6001 104.205 60.3001 106.605 61.3501 107.655C62.1001 108.405 65.5501 109.005 66.4501 108.255C66.9001 107.955 67.2001 106.905 67.3501 106.305C67.8001 104.505 63.9001 104.205 63.3001 102.555Z" fill="#E2978A"/>
<path d="M279.45 262.755C274.05 257.805 267.6 254.205 260.7 249.405C256.35 247.305 252.45 239.955 249.9 236.355C243 226.155 236.85 213.555 227.4 205.455C221.7 199.755 210.75 199.605 203.55 197.805C195.9 196.005 189 194.805 182.4 198.105C193.65 212.055 193.5 211.905 193.5 212.205C189.3 208.755 184.8 205.755 179.85 203.505C169.95 198.855 164.85 205.455 168.45 213.405C168 216.405 165.75 219.705 165.9 222.705C166.2 230.505 177 229.455 179.7 226.755C180 227.055 180.45 227.355 180.75 227.505C179.1 229.155 178.05 234.255 177.9 237.705C177.45 244.455 180.9 252.705 187.95 255.705V255.855C187.65 259.605 190.05 261.105 191.1 262.005C192.45 263.205 193.95 264.105 195.6 264.705C194.25 267.555 199.8 273.855 207.15 272.505C208.35 272.355 209.7 271.755 210.6 270.855L210.75 271.005C210.6 271.005 211.05 271.305 211.2 271.455C216.9 277.155 221.7 280.605 226.05 283.005C233.55 287.205 241.05 284.505 249 286.755C255 288.405 260.4 293.955 267 291.555C274.5 288.855 281.7 280.305 283.5 275.055C285.15 270.555 283.05 266.055 279.45 262.755Z" fill="white"/>
<path fill-rule="evenodd" clip-rule="evenodd" d="M182.064 197.434C188.932 193.999 196.086 195.278 203.721 197.074L203.731 197.077C205.498 197.518 207.502 197.861 209.637 198.218C209.737 198.235 209.838 198.251 209.938 198.268C211.971 198.608 214.107 198.965 216.201 199.435C220.57 200.414 224.902 201.91 227.91 204.904C232.704 209.02 236.644 214.256 240.232 219.704C241.896 222.23 243.492 224.813 245.061 227.354C245.188 227.56 245.314 227.764 245.44 227.968C247.134 230.708 248.803 233.395 250.516 235.928C251.08 236.725 251.707 237.698 252.378 238.738C252.478 238.894 252.579 239.051 252.682 239.21C253.473 240.437 254.326 241.745 255.234 243.004C257.068 245.551 259.036 247.769 261.025 248.729C261.399 248.909 261.555 249.358 261.375 249.731C261.195 250.103 260.746 250.261 260.374 250.079C258.013 248.941 255.856 246.433 254.016 243.88C253.086 242.588 252.214 241.252 251.421 240.023C251.317 239.863 251.215 239.704 251.115 239.548C250.44 238.501 249.832 237.556 249.288 236.788L249.279 236.774C247.543 234.211 245.857 231.497 244.164 228.757C244.038 228.553 243.913 228.35 243.787 228.146C242.215 225.601 240.631 223.037 238.98 220.529C235.411 215.111 231.556 210.005 226.912 206.024L226.89 206.005L226.869 205.985C224.178 203.293 220.194 201.868 215.874 200.899C213.82 200.438 211.722 200.087 209.679 199.745C209.583 199.73 209.485 199.714 209.388 199.697C207.267 199.342 205.206 198.991 203.373 198.533C195.711 196.73 189.066 195.61 182.736 198.775C182.365 198.961 181.914 198.811 181.729 198.44C181.543 198.07 181.693 197.618 182.064 197.434Z" fill="#000001"/>
<path d="M167.25 180.105C164.4 182.205 165.6 181.305 161.85 184.155C168.45 193.605 167.7 192.705 168 193.005C171.6 190.455 171.9 189.555 173.4 189.255C173.4 188.205 174.3 189.705 167.25 180.105Z" fill="#FCD6D0"/>
<path d="M176.4 190.306C175.65 189.406 174.45 188.956 173.25 189.106C172.2 189.256 171.75 189.706 167.85 192.856C166.35 194.056 166.05 196.156 167.25 197.506C167.85 198.406 170.4 201.406 171 202.156C173.7 200.956 177.6 201.856 180.15 203.056C185.1 205.306 189.75 208.306 193.8 211.756C193.8 211.606 176.55 190.456 176.4 190.306Z" fill="#E2978A"/>
<path d="M184.35 142.605C184.5 115.905 162.45 94.4549 135.45 94.3049C115.8 94.3049 97.9505 105.855 90.3005 124.005C84.3005 138.105 85.3505 154.306 93.4505 167.356C109.8 193.756 142.8 197.656 164.85 181.456C177 172.156 184.2 157.906 184.35 142.605ZM135.15 185.356C111.3 185.656 91.6503 166.156 91.5003 142.305C91.3503 118.755 110.4 99.4049 134.1 99.2549C157.95 98.9549 177.45 118.005 177.75 141.855C178.2 165.706 159.15 185.056 135.15 185.356Z" fill="#E2978A"/>
<path d="M176.55 213.104C178.5 212.654 181.05 210.855 181.8 208.905C182.1 207.855 181.95 206.954 181.2 206.204C179.85 204.404 176.85 204.254 175.65 204.254C170.55 204.254 169.5 209.504 173.55 211.754C173.85 211.904 174 212.354 173.85 212.804C173.7 213.254 173.25 213.254 172.8 213.104C167.4 209.954 168.9 202.604 175.65 202.754C177.45 202.754 180.6 203.055 182.25 205.155C185.4 208.755 181.05 213.704 176.7 214.454C175.95 214.754 175.65 213.254 176.55 213.104Z" fill="#000001"/>
<path d="M280.05 262.305C274.65 257.355 268.2 253.605 261.3 248.955C261 248.655 260.55 248.805 260.25 249.105C259.95 249.405 260.1 249.855 260.4 250.155C267.3 254.805 273.75 258.555 279 263.505C282.75 266.805 284.25 271.005 282.9 275.055C281.25 280.005 274.35 288.555 267 291.105C260.7 293.355 255.45 287.955 249.45 286.305C241.5 284.055 234 286.755 226.8 282.705C220.05 278.955 216 274.755 211.95 271.155C212.85 270.105 213.15 268.755 213.15 267.405C217.2 270.405 222 272.505 226.8 273.405C227.25 273.555 227.55 273.255 227.7 272.805C227.7 272.355 227.55 272.055 227.1 271.905C217.35 270.105 209.25 263.805 204.45 255.405C202.95 253.005 201.75 250.305 200.4 247.605C196.2 238.905 193.65 236.205 184.95 229.455C183.45 228.405 179.4 225.105 178.05 223.905C173.25 219.405 165.9 211.005 169.2 205.155C171.15 201.705 176.25 202.455 179.85 204.105C191.55 209.805 193.65 214.005 206.7 222.555C208.35 223.605 216.15 228.705 218.25 230.805C218.55 231.255 219 231.855 219.3 232.305C219.6 232.605 220.05 232.755 220.35 232.455C220.65 232.155 220.8 231.705 220.5 231.405C219.45 230.055 220.2 229.605 208.95 222.255C209.55 220.755 211.8 219.105 213.15 218.055C213.45 217.755 213.45 217.305 213.3 217.005C213 216.705 212.55 216.705 212.25 216.855C210.75 218.055 208.65 219.705 207.75 221.355C194.25 212.505 192.45 208.605 180.45 202.755C177.75 201.555 173.7 200.655 170.7 201.855C167.55 203.205 165.45 207.405 167.85 213.105C167.85 216.255 165.15 219.255 165.3 222.855C165.6 230.055 173.4 230.955 179.7 227.955C174.6 236.055 176.85 251.505 187.2 256.305C187.05 260.055 189.15 261.705 190.35 262.605C191.7 263.655 192.75 264.555 194.7 265.305C194.4 269.655 200.55 274.755 207.3 273.555C208.5 273.405 209.7 272.955 210.6 272.205C214.8 276.255 218.85 280.155 225.75 284.055C233.55 288.405 241.05 285.705 248.85 287.805C254.85 289.455 260.4 295.155 267.3 292.605C270.75 291.405 273.9 289.155 276.45 286.455C279.3 283.755 282.9 279.405 284.1 275.505C285.75 270.855 284.1 266.055 280.05 262.305ZM169.35 226.905C167.85 226.005 167.1 224.505 166.95 222.555C166.8 220.005 168.45 217.755 169.2 215.205C171.45 219.255 175.5 223.605 178.95 226.455C176.1 227.805 171.9 228.405 169.35 226.905ZM185.85 253.455C177.75 247.755 177.15 234.105 181.2 228.255C187.05 232.905 192.15 236.205 195.75 242.205C193.8 240.405 191.55 239.205 189.3 239.055C188.85 239.055 188.55 239.355 188.55 239.805C188.55 240.255 188.85 240.555 189.3 240.555C194.85 240.705 201.45 249.855 199.05 253.905C198.45 254.955 197.1 255.705 195.3 255.855C195.6 252.405 191.7 247.755 187.95 248.655C185.85 249.255 185.1 251.205 185.85 253.455ZM188.4 250.155C191.1 249.555 194.25 253.455 193.95 256.005C192.15 256.005 190.65 255.705 188.7 254.955C187.05 253.455 186.3 250.605 188.4 250.155ZM191.4 261.105C190.35 260.355 188.85 259.155 188.7 256.605C193.95 258.405 200.7 257.805 201 252.255C203.4 257.205 205.35 259.905 207.9 262.605C207 263.505 206.1 264.105 205.05 264.555L204.3 263.355C201.9 260.055 196.65 261.255 196.5 264.105C194.55 263.355 193.95 263.055 191.4 261.105ZM203.4 265.005C201.6 265.305 199.65 265.155 197.85 264.555C197.55 262.905 201.15 262.005 202.95 264.255L203.4 265.005ZM210.3 270.405C209.55 271.155 208.5 271.755 207.3 271.755C201.75 272.805 196.8 268.905 196.5 265.605C200.85 267.105 205.8 267.105 208.95 263.655C209.7 264.405 210.3 265.005 211.05 265.605C211.95 267.105 211.65 269.205 210.3 270.405Z" fill="#000001"/>
<path d="M167.1 193.156L161.1 184.606C160.8 184.306 160.95 183.856 161.25 183.556L166.8 179.506C167.1 179.206 167.7 179.356 167.85 179.656L173.85 188.206C174.15 188.506 174 188.956 173.7 189.256C173.4 189.556 172.95 189.406 172.65 189.106L167.1 181.306L162.75 184.456L168.3 192.406C168.9 193.156 167.7 193.906 167.1 193.156Z" fill="#000001"/>
<path d="M168.6 133.605C168.45 133.155 168 133.005 167.7 133.155L159.45 136.305L151.05 129.705L151.35 122.805L161.85 109.005C162.15 108.705 162 108.255 161.7 107.955C161.4 107.655 160.95 107.805 160.65 108.105L150 122.055C149.85 122.355 149.85 121.305 149.25 135.555L136.35 138.705L127.35 128.955C127.05 128.655 126.6 128.655 126.3 128.955C126 129.255 126 129.705 126.3 130.005C136.5 140.955 135.75 140.205 136.2 140.205C136.35 140.205 135.45 140.355 149.25 137.055L149.1 140.205L146.25 150.555C146.1 151.005 146.55 151.455 147 151.455C147.3 151.455 147.6 151.305 147.75 150.855L150.6 140.355C150.6 140.205 150.6 140.655 151.05 131.205C159.45 137.955 159 137.655 159.45 137.655C159.6 137.655 159 137.805 168.3 134.205C168.45 134.355 168.75 133.905 168.6 133.605Z" fill="#000001"/>
<path d="M110.1 169.455C109.95 169.455 109.8 169.455 109.65 169.305C105.45 165.855 102.15 161.355 100.05 156.405C99.3003 154.755 98.7003 153.105 98.2503 151.455C98.2503 151.305 97.0503 148.605 97.8003 148.155C98.1003 148.005 98.5502 148.005 98.8502 148.305C99.6002 149.055 100.8 159.855 110.7 168.255C111 168.705 110.7 169.455 110.1 169.455Z" fill="#000001"/>
<path d="M116.1 174.105C115.05 173.655 114 172.905 113.25 172.005C112.95 171.705 112.95 171.255 113.4 170.955C113.7 170.655 114.15 170.655 114.45 171.105C115.05 171.855 115.95 172.455 116.85 172.905C117.6 173.205 117 174.555 116.1 174.105Z" fill="#000001"/>
</svg>
