<svg width="150" height="150" viewBox="0 0 150 150" fill="none" xmlns="http://www.w3.org/2000/svg">
<path d="M64.8257 18.3749L61.0008 21.0749L58.3758 17.1749L56.4258 18.5249L59.0508 22.4249L55.3008 25.1999L56.6508 27.0749L60.4758 24.3749L63.1008 28.2749L64.9758 26.9249L62.3508 23.0249L66.1008 20.2499L64.8257 18.3749Z" fill="#FCD6D0"/>
<path d="M47.9507 5.69998L43.3008 8.55L40.6008 3.75L38.2007 5.17502L40.9008 10.05L36.1758 12.9L37.4507 15.3L42.1758 12.375L44.8758 17.25L47.2758 15.9L44.5757 10.95L49.3008 8.1L47.9507 5.69998Z" fill="#FCD6D0"/>
<path d="M100.001 68.1749C100.076 52.7999 86.2015 40.4249 69.1762 40.3499C52.0762 40.3499 38.2012 52.6498 38.1262 67.9498C38.0512 87.825 61.2262 102.15 82.7515 92.925L91.9765 100.425L88.2265 89.775C95.7265 84.525 100.001 76.575 100.001 68.1749Z" fill="white"/>
<path d="M128.051 14.6998C123.176 16.1248 95.5014 22.1248 95.5014 22.1248C95.5014 22.1248 92.2764 23.8498 91.8264 26.0998C90.9264 30.7498 89.0514 46.5748 89.0514 46.5748L88.9014 46.7248C103.976 57.8998 103.676 78.75 88.4514 89.7L92.2014 100.35L82.9764 92.85L82.5264 93C82.6014 93.15 82.6014 93 77.8764 130.2C77.8764 130.2 76.9764 135.975 80.5764 136.125C84.5514 136.275 110.276 138.75 110.276 138.75C110.276 138.75 114.551 139.8 116.276 132.225C118.001 124.725 132.476 17.5498 132.476 17.5498C132.476 17.5498 132.851 13.3498 128.051 14.6998Z" fill="white"/>
<path d="M75.2513 78.975C74.801 76.8 74.051 76.575 73.826 75.75C71.651 76.425 69.476 77.25 67.301 78.075C67.151 78.75 67.1511 79.65 67.2261 80.325C68.4261 85.65 75.8513 84.45 75.2513 78.975Z" fill="#FCD6D0"/>
<path d="M59.7258 50.6998C59.2758 51.6748 59.3508 52.7999 60.1758 53.8499C61.6758 52.7999 63.4008 52.0498 65.2008 51.8248C64.6758 48.5248 61.0008 48.0748 59.7258 50.6998Z" fill="#FCD6D0"/>
<path d="M75.9264 51.6748C72.8511 51.5248 69.8511 53.9248 69.8511 57.0748C69.8511 61.7998 74.9512 64.4998 78.7764 62.3998C80.5764 61.4248 81.7014 59.6248 81.7764 57.5998C81.7764 54.4498 79.2264 51.8248 75.9264 51.6748Z" fill="#FCD6D0"/>
<path d="M86.7263 70.4249C84.7763 69.4499 82.3013 69.0749 80.8013 67.3499C79.3013 65.6249 79.0013 62.6999 78.7013 62.4749C74.876 64.6499 69.6261 61.7999 69.7761 57.1499C69.8511 55.6499 70.451 54.2999 71.501 53.2499C71.051 52.4249 67.676 51.5249 65.201 51.8999C63.401 52.1249 61.6761 52.8749 60.1761 53.9249C56.0511 56.9249 55.1511 62.3249 55.6761 67.4999C55.9011 69.9749 56.8011 72.5999 56.4261 75.075C55.9761 77.4 54.551 79.35 53.951 81.6C53.726 82.5 53.501 83.7 54.326 84.375C55.451 85.275 56.5761 85.125 58.6761 84.825C62.6511 84.15 66.776 83.175 68.576 82.575C67.976 81.9 67.4511 80.925 67.3011 80.025C67.2261 79.5 67.301 78.675 67.376 78C69.476 77.175 71.5761 76.425 73.6761 75.75C74.2761 76.575 75.0263 77.925 75.1763 78.9C75.2513 79.425 75.2513 79.95 75.1013 80.475C76.0013 80.475 84.5513 77.025 84.6263 77.025C86.3513 76.275 88.2263 75.375 88.6013 73.3499C88.8263 71.9249 87.8513 71.0249 86.7263 70.4249Z" fill="#E2978A"/>
<path d="M132.026 11.6998C121.301 14.0248 97.9761 19.1248 97.9761 19.1248C97.9761 19.1248 90.0261 20.1748 89.1261 27.3748L86.8761 45.3748C87.5511 45.8248 88.2261 46.2748 88.7511 46.7248L88.9011 46.5748C88.9761 46.5748 90.7761 30.7498 91.6761 26.0998C92.1261 23.8498 95.3511 22.1248 95.3511 22.1248C95.3511 22.1248 123.101 16.1997 127.901 14.7747C132.701 13.3497 132.251 17.5498 132.251 17.5498C132.251 17.5498 117.776 124.725 116.051 132.225C114.326 139.725 110.051 138.75 110.051 138.75C110.051 138.75 84.3261 136.275 80.3511 136.125C76.7511 135.975 77.6511 130.2 77.6511 130.2C82.3761 93.075 82.3761 93.225 82.3011 93C81.5511 93.3 80.8761 93.6 80.1261 93.825C80.2011 94.125 80.2011 93.825 75.7761 129.45C75.7761 129.45 73.6758 138.6 77.6511 141.375C81.2511 143.925 110.201 145.95 110.201 145.95C110.201 145.95 120.251 147.9 121.451 140.25C122.651 132.3 137.651 18.6748 137.651 18.6748C137.651 18.6748 139.751 9.97478 132.026 11.6998Z" fill="#FCD6D0"/>
<path d="M77.6511 56.0249C77.3511 53.6999 74.4258 53.8499 73.9008 56.3249C73.7508 57.0749 73.6008 58.8749 74.3508 59.7749C75.1761 60.6749 76.7511 60.45 77.2011 59.175C77.7261 58.125 77.8011 56.9999 77.6511 56.0249ZM76.6011 58.8749C76.3011 59.6999 75.4011 59.7749 75.0261 59.2499C74.5008 58.6499 74.5008 57.3 74.7258 56.475C75.0261 54.825 76.8261 54.6 76.9761 56.1C77.0511 57 76.9761 57.9749 76.6011 58.8749Z" fill="#000001"/>
<path d="M86.8765 45.7498C86.6515 45.7498 86.5015 45.5248 86.5015 45.2998L88.7515 27.2998C89.6515 19.9498 97.8265 18.7498 97.9015 18.7498C98.4265 18.6748 98.5015 19.4248 97.9765 19.4998C97.6765 19.5748 90.3265 20.6248 89.5015 27.3748L87.2515 45.3748C87.2515 45.5998 87.1015 45.7498 86.8765 45.7498Z" fill="#000001"/>
<path d="M110.426 146.4C109.676 146.4 81.2514 144.3 77.6514 141.75C73.6012 138.825 75.5514 129.825 75.6264 129.45L80.0514 94.05C80.0514 93.825 80.2764 93.675 80.5014 93.75C80.7264 93.75 80.8764 93.975 80.8014 94.2L76.3764 129.675C76.3764 129.825 74.4261 138.6 78.1014 141.225C81.6264 143.7 110.201 145.725 110.501 145.725C110.951 145.65 110.876 146.4 110.426 146.4Z" fill="#000001"/>
<path d="M119.201 137.475C118.976 137.475 118.826 137.25 118.826 137.025L125.126 89.55C125.201 89.025 125.951 89.175 125.876 89.625L119.576 137.1C119.501 137.325 119.351 137.475 119.201 137.475Z" fill="#000001"/>
<path d="M128.051 71.9248C127.826 71.9248 127.676 71.6998 127.676 71.4748L133.976 23.9998C133.976 23.7748 134.201 23.6248 134.426 23.6998C134.651 23.6998 134.801 23.9248 134.726 24.1498L128.426 71.6248C128.351 71.7748 128.201 71.9248 128.051 71.9248Z" fill="#000001"/>
<path d="M108.176 106.425C107.876 106.425 107.651 106.05 107.876 105.75L121.526 91.875C121.676 91.725 121.901 91.725 122.051 91.875C122.201 92.025 122.201 92.25 122.051 92.4C108.251 106.425 108.401 106.425 108.176 106.425Z" fill="#000001"/>
<path d="M104.876 112.425C104.576 112.425 104.351 112.05 104.576 111.75L118.301 97.875C118.451 97.725 118.676 97.725 118.826 97.875C118.976 98.025 118.976 98.25 118.826 98.4C105.026 112.425 105.101 112.425 104.876 112.425Z" fill="#000001"/>
<path d="M92.1265 100.725C91.9015 100.725 92.0515 100.8 82.8265 93.3C61.3762 102.525 37.8262 88.125 37.8262 67.9498C37.8262 52.3498 52.0762 39.9749 69.1012 39.9749C86.7265 39.9749 100.526 52.9499 100.376 68.1749C100.301 76.65 96.1015 84.525 88.8265 89.85L92.5015 100.275C92.5765 100.5 92.4265 100.725 92.1265 100.725ZM82.9015 92.475C83.1265 92.475 82.9765 92.4 91.3765 99.225L88.0765 89.775C88.0015 89.625 88.0765 89.475 88.2265 89.325C103.976 78.075 103.526 56.3249 86.8015 45.6749C66.7762 33.0749 38.6512 45.5999 38.6512 67.8749C38.6512 86.85 60.0262 100.425 80.2765 93.45C82.0765 92.85 82.6765 92.475 82.9015 92.475Z" fill="#000001"/>
<path d="M56.126 85.425C55.376 85.425 54.626 85.125 54.101 84.675C53.351 84 53.2011 82.8 53.6511 81.45C54.2511 79.2 55.751 77.25 56.126 74.9997C56.576 72.5997 55.676 70.0497 55.376 67.4997C54.926 62.9997 55.451 56.9247 60.101 53.5497C63.476 51.0747 67.826 50.5497 71.726 52.6497C71.876 52.7247 71.951 52.9497 71.876 53.1747C71.801 53.3247 71.576 53.3997 71.351 53.3247C67.751 51.3747 63.701 51.8998 60.551 54.2248C56.201 57.3748 55.751 63.1497 56.201 67.4997C56.426 69.9747 57.401 72.5997 56.876 75.15C56.426 77.55 54.926 79.425 54.326 81.675C54.176 82.2 53.876 83.4 54.551 84.075C55.001 84.45 55.6011 84.675 56.2761 84.6C58.6011 84.6 65.126 83.025 68.051 82.2C68.276 82.125 68.426 82.275 68.501 82.425C68.576 82.65 68.4261 82.8 68.2761 82.875C65.7261 83.775 58.901 85.425 56.126 85.425Z" fill="#000001"/>
<path d="M56.4261 84C56.2011 84 56.0511 83.85 55.9761 83.7C55.9011 83.325 56.3511 83.025 56.6511 82.8C57.4011 82.2 58.2261 81.675 59.1261 81.225C61.0761 80.175 63.3261 79.2 65.6511 78.375C68.6511 77.25 72.326 75.6 79.0764 73.7998C81.4764 73.1248 84.1014 72.4498 86.5014 73.0498C86.7264 73.1248 86.8014 73.2748 86.8014 73.4998C86.7264 73.7248 86.5764 73.7998 86.3514 73.7998C84.0264 73.2748 81.4764 73.9498 79.2264 74.5498C72.4761 76.35 68.3511 78.15 65.8761 79.05C63.2511 80.025 59.2011 81.75 57.0261 83.475C56.6511 83.775 56.8011 83.7 56.7261 83.775C56.7261 83.925 56.5761 84 56.4261 84Z" fill="#000001"/>
<path d="M36.0254 28.6499C33.2504 27.3749 28.7503 22.95 26.3503 26.85C25.9003 27.675 25.4503 28.4999 25.0753 29.3999C24.6253 30.4499 24.3253 31.5 24.1753 32.625C24.1753 36.15 29.0503 37.2 31.6003 38.625C37.3003 41.775 39.9253 42.675 42.1753 36.6C42.3253 36.15 42.4753 35.5499 42.6253 35.0249C42.7003 34.7999 42.8503 34.4249 42.9253 34.2749C44.2753 29.5499 38.2004 29.6249 36.0254 28.6499Z" fill="#E2978A"/>
<path d="M26.3505 45.5248C25.9755 41.4748 21.9254 43.1248 19.7504 42.8998C18.2504 42.7498 12.2504 40.4248 12.2504 44.0248C12.1004 44.7748 12.1005 45.5999 12.0255 46.3499C11.6505 51.9749 15.4754 50.9999 19.3004 51.7499C22.4504 52.3499 25.6005 52.9499 26.2755 49.7999C26.6505 48.3749 26.3505 46.5748 26.3505 45.5248Z" fill="#E2978A"/>
<path d="M42.1753 32.4751C42.1003 32.1751 41.6503 32.1751 41.5003 32.4001C40.6753 33.0751 37.5254 34.2001 35.2754 34.2001C34.1504 34.2751 33.1004 33.9751 32.2754 33.5251C31.6004 33.0001 31.0003 32.2501 30.6253 31.5001C29.8003 29.8501 29.2003 28.5001 28.7503 27.1501C28.6003 26.7001 27.8503 26.9251 28.0753 27.3751C28.5253 28.5751 29.0503 29.8501 29.8003 31.4251C28.0003 31.9501 26.2003 32.6251 25.4503 32.9251C25.2253 33.0001 25.1504 33.2251 25.2254 33.3751C25.3004 33.6001 25.5253 33.6751 25.6753 33.6001C26.2753 33.3751 28.8253 32.4751 30.1753 32.1001C31.6003 34.6501 33.8504 35.3251 36.8504 34.8001C37.2254 35.7001 38.2003 38.7751 38.0503 39.6001C38.0503 39.8251 38.2004 39.9751 38.3504 40.0501C38.5754 40.0501 38.7253 39.9001 38.8003 39.7501C38.9503 38.7001 37.9754 35.8501 37.5254 34.6501C38.3504 34.5001 39.1004 34.2751 39.8504 33.9751C40.3004 33.8251 41.7253 33.2251 41.9503 32.9251C42.1003 32.8501 42.3253 32.7001 42.1753 32.4751Z" fill="#000001"/>
<path d="M25.3003 44.0249C25.1503 43.9499 24.9253 44.0249 24.7753 44.1749C24.5503 44.6249 24.0253 45.0749 23.6503 45.3749C22.2253 46.5749 20.3503 47.6999 18.4753 47.3249C17.8753 47.0999 17.2753 46.7249 16.7503 46.1999C16.0753 45.5249 15.1002 44.4749 14.2002 43.3499C14.0502 43.1999 13.8253 43.1249 13.6753 43.2749C13.5253 43.4249 13.4503 43.6499 13.6003 43.7999C14.3503 44.7749 15.2503 45.7499 15.9253 46.4249C14.9503 47.0999 14.0503 47.9249 13.2253 48.6749C13.0753 48.8249 13.0753 49.0499 13.2253 49.1999C13.3753 49.3499 13.6003 49.3499 13.7503 49.1999C14.9503 48.1499 16.0003 47.2499 16.5253 46.9499C17.0503 47.4749 17.6502 47.7749 18.3252 47.9999C19.3002 48.2249 20.5752 48.1499 22.0752 47.3999C22.7502 48.2249 23.2753 48.9749 23.8003 49.8749C24.0253 50.0999 24.1003 50.4749 24.2503 50.7749C24.4003 51.2249 25.1503 50.9999 24.9253 50.5499C24.7753 50.1749 24.7003 49.7999 24.4003 49.4999C23.9503 48.6749 23.3503 47.8499 22.7503 47.0999C23.2753 46.7249 23.8003 46.3499 24.2503 45.9749C24.7753 45.5249 25.2253 45.1499 25.5253 44.5499C25.5253 44.3999 25.4503 44.1749 25.3003 44.0249Z" fill="#000001"/>
</svg>
