<svg width="111" height="67" viewBox="0 0 111 67" fill="none" xmlns="http://www.w3.org/2000/svg">
<path d="M1.98251 0C1.98251 0 4.09243 8.5303 19.6171 5.55847C19.6171 5.55847 2.5041 11.4799 1.98251 7.26009C1.46092 3.04025 1.41516 1.11205 1.98251 0.000444042V0Z" fill="url(#paint0_radial_2280_1459)"/>
<path d="M18.6457 28.5969C26.1666 22.1312 35.0825 10.0164 23.4222 13.2339C15.952 15.2954 29.3654 7.19165 29.3654 7.19165L34.5382 11.2751V21.4843L22.152 28.2904C22.152 28.2904 17.9788 29.1701 18.6457 28.5965V28.5969Z" fill="url(#paint1_radial_2280_1459)"/>
<path d="M5.99795 40.7238C5.99795 40.7238 9.40119 31.3769 19.837 28.019C30.2729 24.6615 37.1926 5.76293 27.5961 11.1401C5.25155 23.6592 -4.52853 8.96224 1.98249 0.000976562C1.98249 0.000976562 1.10724 8.44064 9.62155 7.89595C18.1359 7.35125 30.4319 -0.180736 37.0567 4.53848C43.6814 9.25724 42.0931 26.8625 27.7324 32.2393C19.2452 35.4168 11.9923 34.4576 5.9984 40.7243L5.99795 40.7238Z" fill="url(#paint2_radial_2280_1459)"/>
<path d="M38.698 21.6395C40.6822 15.4937 39.5075 9.12176 35.907 6.55645C29.2823 1.83768 16.9862 9.36967 8.47189 9.91436C-0.0424178 10.4586 0.832827 2.01939 0.832827 2.01939C0.826607 2.02828 0.819943 2.03716 0.813723 2.04605C0.889251 1.87011 0.970555 1.69551 1.05719 1.52179C0.989215 2.78934 0.972332 9.71399 8.71003 9.2195C17.2243 8.6748 29.5204 1.14281 36.1452 5.86158C39.8816 8.52375 41.0052 15.2853 38.698 21.6395Z" fill="url(#paint3_radial_2280_1459)"/>
<path d="M39.852 19.6064C39.322 21.2516 38.5658 22.8812 37.5693 24.4171C37.7581 24.0363 37.9331 23.652 38.0953 23.2651C38.3214 22.727 38.5218 22.1841 38.6978 21.6394C41.0049 15.2852 39.8813 8.52364 36.1449 5.86147C29.5201 1.1427 17.2241 8.6747 8.70975 9.21939C0.97206 9.71388 0.988944 2.78923 1.05692 1.52168C1.31683 1.00053 1.62516 0.491381 1.98237 0C1.98237 0 1.10712 8.43967 9.62143 7.89497C18.1357 7.35072 30.4318 -0.181713 37.0566 4.5375C40.6544 7.10059 41.83 13.4645 39.852 19.6064Z" fill="url(#paint4_radial_2280_1459)"/>
<path d="M23.99 21.0337L22.8958 23.1241L19.692 21.4474L16.7051 19.8844L17.7994 17.794C18.4729 16.506 20.0634 16.0084 21.351 16.6824L22.0063 17.0254L22.8784 17.4821C24.166 18.1557 24.6636 19.7462 23.99 21.0337Z" fill="url(#paint5_radial_2280_1459)"/>
<path d="M22.6436 23.6068L7.45387 52.632L4.25012 50.9553L1.26318 49.3923L16.4529 20.3671L19.4398 21.9301L22.6436 23.6068Z" fill="url(#paint6_radial_2280_1459)"/>
<path d="M7.21211 53.0948L2.27431 56.8282C1.91932 57.0965 1.47948 57.0654 1.1667 56.8468C0.921013 56.6753 0.753959 56.3888 0.768177 56.04L1.02098 49.8551L4.00792 51.4181L7.21211 53.0948Z" fill="url(#paint7_radial_2280_1459)"/>
<path d="M1.02098 49.8551L4.00792 51.4181L1.1667 56.8468C0.921013 56.6753 0.753959 56.3888 0.768177 56.04L1.02098 49.8551Z" fill="url(#paint8_radial_2280_1459)"/>
<path d="M16.4511 20.3642L1.26367 49.3905L4.25073 50.9534L19.4382 21.9272L16.4511 20.3642Z" fill="url(#paint9_radial_2280_1459)"/>
<path d="M22.0063 17.0254L19.692 21.4474L16.7051 19.8844L17.7994 17.794C18.4729 16.506 20.0634 16.0084 21.351 16.6824L22.0063 17.0254Z" fill="url(#paint10_radial_2280_1459)"/>
<path d="M111 45.9463V56.9403H106.363V55.1454C105.017 56.529 103.072 57.3891 100.716 57.3891C96.7898 57.3891 94.3218 55.108 94.3218 51.8547C94.3218 48.5265 97.0142 46.4698 101.315 46.4698H105.952V45.6471C105.952 43.5904 104.755 42.3938 102.511 42.3938C100.604 42.3938 99.2579 43.1791 97.6125 44.9366L94.9949 41.8329C97.1264 39.29 99.8188 38.0186 103.072 38.0186C107.896 38.0186 111 40.8232 111 45.9463ZM105.952 50.0223V49.7979H101.988C100.342 49.7979 99.4075 50.4337 99.4075 51.6677C99.4075 52.9017 100.455 53.687 102.062 53.687C104.269 53.687 105.952 52.1538 105.952 50.0223Z" fill="#222542"/>
<path d="M94.0375 45.4602V56.9403H88.9892V46.1707C88.9892 43.9644 87.6804 42.5808 85.6985 42.5808C83.7166 42.5808 82.2956 44.0018 82.2956 46.0585V56.9403H77.2473V46.1707C77.2473 43.9644 75.9385 42.5808 73.9566 42.5808C71.8999 42.5808 70.5537 43.9644 70.5537 46.1707V56.9403H65.5054V38.43H70.1423V40.0753C71.3763 38.7665 73.2461 38.0186 75.3776 38.0186C77.8082 38.0186 79.6406 38.9161 80.8746 40.6736C82.333 39.0283 84.5019 38.0186 87.0447 38.0186C91.3825 38.0186 94.0375 40.9728 94.0375 45.4602Z" fill="#222542"/>
<path d="M46.9922 48.7878V38.4294H52.0405V49.1991C52.0405 51.3306 53.4989 52.7516 55.5556 52.7516C57.5001 52.7516 58.9959 51.3306 58.9959 49.1991V38.4294H64.0442V48.7878C64.0442 53.9482 60.3795 57.3886 55.5556 57.3886C50.6195 57.3886 46.9922 53.9482 46.9922 48.7878Z" fill="#222542"/>
<path d="M40.5652 56.9399V34.3768H45.6143V56.9399H40.5652Z" fill="#222542"/>
<path d="M39.9073 47.6664C39.9073 53.2009 36.093 57.3891 30.9326 57.3891C28.6889 57.3891 26.7443 56.6038 25.3981 55.1454L20.3499 66.2241V55.1454V38.43H24.9868V40.7484C26.2208 38.9909 28.3897 38.0186 30.9326 38.0186C36.093 38.0186 39.9073 42.132 39.9073 47.6664ZM34.7842 47.7038C34.7842 44.6001 32.7275 42.5808 29.9977 42.5808C27.4548 42.5808 25.3233 44.3383 25.3233 47.6664C25.3233 50.9572 27.4174 52.7895 29.9977 52.7895C32.6901 52.7895 34.7842 50.7328 34.7842 47.7038Z" fill="#222542"/>
<defs>
<radialGradient id="paint0_radial_2280_1459" cx="0" cy="0" r="1" gradientUnits="userSpaceOnUse" gradientTransform="translate(22.3226 2.85566) scale(15.902 7.75157)">
<stop stop-color="#F6C4C3"/>
<stop offset="0.455" stop-color="#F8A698"/>
<stop offset="1" stop-color="#DB6B7B"/>
</radialGradient>
<radialGradient id="paint1_radial_2280_1459" cx="0" cy="0" r="1" gradientUnits="userSpaceOnUse" gradientTransform="translate(36.932 14.2188) scale(14.0702 19.0748)">
<stop stop-color="#F6C4C3"/>
<stop offset="0.455" stop-color="#F8A698"/>
<stop offset="1" stop-color="#DB6B7B"/>
</radialGradient>
<radialGradient id="paint2_radial_2280_1459" cx="0" cy="0" r="1" gradientUnits="userSpaceOnUse" gradientTransform="translate(46.9252 13.25) scale(35.9641)">
<stop stop-color="#F6C4C3"/>
<stop offset="0.455" stop-color="#F8A698"/>
<stop offset="1" stop-color="#DB6B7B"/>
</radialGradient>
<radialGradient id="paint3_radial_2280_1459" cx="0" cy="0" r="1" gradientUnits="userSpaceOnUse" gradientTransform="translate(45.7557 8.06697) scale(34.449 17.7666)">
<stop stop-color="#F6C4C3"/>
<stop offset="0.455" stop-color="#F8A698"/>
<stop offset="1" stop-color="#DB6B7B"/>
</radialGradient>
<radialGradient id="paint4_radial_2280_1459" cx="0" cy="0" r="1" gradientUnits="userSpaceOnUse" gradientTransform="translate(46.7682 7.94395) scale(35.0426 21.5636)">
<stop stop-color="#F6C4C3"/>
<stop offset="0.455" stop-color="#F8A698"/>
<stop offset="1" stop-color="#DB6B7B"/>
</radialGradient>
<radialGradient id="paint5_radial_2280_1459" cx="0" cy="0" r="1" gradientUnits="userSpaceOnUse" gradientTransform="translate(25.4277 18.5754) scale(6.68512 5.95433)">
<stop stop-color="#F6C4C3"/>
<stop offset="0.455" stop-color="#F8A698"/>
<stop offset="1" stop-color="#DB6B7B"/>
</radialGradient>
<radialGradient id="paint6_radial_2280_1459" cx="0" cy="0" r="1" gradientUnits="userSpaceOnUse" gradientTransform="translate(25.8494 30.8643) scale(18.8432 28.4943)">
<stop stop-color="#F6C4C3"/>
<stop offset="0.455" stop-color="#F8A698"/>
<stop offset="1" stop-color="#DB6B7B"/>
</radialGradient>
<radialGradient id="paint7_radial_2280_1459" cx="0" cy="0" r="1" gradientUnits="userSpaceOnUse" gradientTransform="translate(8.17845 52.1862) scale(5.67998 6.32768)">
<stop stop-color="#F6C4C3"/>
<stop offset="0.455" stop-color="#F8A698"/>
<stop offset="1" stop-color="#DB6B7B"/>
</radialGradient>
<radialGradient id="paint8_radial_2280_1459" cx="0" cy="0" r="1" gradientUnits="userSpaceOnUse" gradientTransform="translate(4.49381 52.1298) scale(2.85603 6.17464)">
<stop stop-color="#F6C4C3"/>
<stop offset="0.455" stop-color="#F8A698"/>
<stop offset="1" stop-color="#DB6B7B"/>
</radialGradient>
<radialGradient id="paint9_radial_2280_1459" cx="0" cy="0" r="1" gradientUnits="userSpaceOnUse" gradientTransform="translate(19.7002 16.5205) rotate(-62.38) scale(28.872 2.97726)">
<stop stop-color="#F6C4C3"/>
<stop offset="0.455" stop-color="#F8A698"/>
<stop offset="1" stop-color="#DB6B7B"/>
</radialGradient>
<radialGradient id="paint10_radial_2280_1459" cx="0" cy="0" r="1" gradientUnits="userSpaceOnUse" gradientTransform="translate(22.8012 18.0299) scale(4.67214 4.47355)">
<stop stop-color="#F6C4C3"/>
<stop offset="0.455" stop-color="#F8A698"/>
<stop offset="1" stop-color="#DB6B7B"/>
</radialGradient>
</defs>
</svg>
