<svg width="25" height="25" viewBox="0 0 25 25" fill="none" xmlns="http://www.w3.org/2000/svg">
<g clip-path="url(#clip0_1390_18156)">
<mask id="mask0_1390_18156" style="mask-type:luminance" maskUnits="userSpaceOnUse" x="0" y="0" width="25" height="25">
<path d="M0 0.875H24.3437V24.875H0V0.875Z" fill="white"/>
</mask>
<g mask="url(#mask0_1390_18156)">
<path d="M22.1958 24.446C22.2244 24.4173 22.253 24.4173 22.2817 24.3887C22.1958 24.446 22.1098 24.4746 22.0239 24.5032C22.0812 24.4746 22.1385 24.4746 22.1958 24.446Z" fill="#D49639"/>
<path d="M10.3674 1.30501C10.3674 1.30501 10.3961 1.30501 10.4247 1.27637C10.4247 1.27637 10.3961 1.30501 10.3674 1.30501Z" fill="#D49639"/>
<path d="M15.7231 6.63201L13.6038 10.7848C13.9761 10.928 14.3198 11.1284 14.6634 11.3862L22.8257 17.7728C23.2267 18.0879 23.5703 18.4888 23.7995 18.8898L15.7231 3.02342C15.6945 2.99478 15.6945 2.96614 15.6658 2.9375C16.2672 4.05445 16.3245 5.42915 15.7231 6.63201Z" fill="#EF5AA0"/>
<path d="M2.17657 24.446C2.23385 24.4746 2.29113 24.5032 2.31977 24.5032C2.23385 24.4746 2.14793 24.4173 2.06201 24.3887C2.09065 24.3887 2.11929 24.4173 2.17657 24.446Z" fill="#D49639"/>
<path d="M1.51794 17.7725L9.70887 11.3859C10.0239 11.1281 10.3962 10.9276 10.7685 10.7844L8.6492 6.63169C8.04777 5.42883 8.10505 4.05413 8.70648 2.96582C8.67784 2.99446 8.67784 3.0231 8.6492 3.05174L0.544189 18.8894C0.801946 18.4599 1.11698 18.0875 1.51794 17.7725Z" fill="#70CFF0"/>
<path d="M13.9762 1.30501C13.9476 1.30501 13.9476 1.27637 13.9189 1.27637C13.9476 1.30501 13.9762 1.30501 13.9762 1.30501Z" fill="#D49639"/>
<path d="M8.64909 6.63188L10.7684 10.7846C11.1694 10.6414 11.599 10.5555 12.0286 10.5269C12.0858 10.5269 12.1145 10.5269 12.1718 10.5269C12.229 10.5269 12.2577 10.5269 12.315 10.5269C12.7445 10.5269 13.1741 10.6128 13.5751 10.7846L15.6944 6.63188C16.2959 5.42901 16.2386 4.05431 15.6371 2.96601C15.6085 2.93737 15.6085 2.88009 15.5799 2.85145C15.5226 2.76553 15.494 2.70825 15.4367 2.62233C15.408 2.59369 15.408 2.56505 15.3794 2.53641C15.3221 2.45049 15.2648 2.39321 15.2076 2.3073C15.2076 2.27866 15.1789 2.25002 15.1789 2.25002C15.1216 2.1641 15.0357 2.10682 14.9784 2.0209C14.9498 1.99226 14.9498 1.99226 14.9212 1.96362C14.8352 1.8777 14.7493 1.82043 14.692 1.76315C14.6634 1.73451 14.6348 1.73451 14.6061 1.70587C14.5202 1.64859 14.4343 1.56267 14.3484 1.50539C14.3197 1.50539 14.3197 1.47675 14.2911 1.47675C14.2052 1.41947 14.0906 1.36219 14.0047 1.30491C13.9761 1.30491 13.9474 1.27627 13.9188 1.27627C13.8329 1.219 13.7469 1.19036 13.6324 1.16172C13.6037 1.13308 13.5465 1.13308 13.5178 1.10444C13.4319 1.0758 13.3746 1.04716 13.2887 1.01852C13.2314 0.989878 13.1741 0.989878 13.1169 0.961238C13.0596 0.932599 12.9737 0.932599 12.9164 0.903959C12.8591 0.903959 12.8018 0.875319 12.7445 0.875319C12.6873 0.875319 12.63 0.84668 12.5441 0.84668C12.4868 0.84668 12.4295 0.84668 12.3436 0.84668C12.2863 0.84668 12.229 0.84668 12.1431 0.84668C12.0858 0.84668 12.0286 0.84668 11.9426 0.84668C11.8854 0.84668 11.8281 0.84668 11.7422 0.84668C11.6849 0.84668 11.6276 0.84668 11.5417 0.875319C11.4844 0.875319 11.4271 0.903959 11.3698 0.903959C11.3126 0.903959 11.2266 0.932599 11.1694 0.961238C11.1121 0.961238 11.0548 0.989878 10.9975 1.01852C10.9116 1.04716 10.8543 1.0758 10.7684 1.10444C10.7398 1.13308 10.6825 1.13308 10.6539 1.16172C10.5679 1.19036 10.482 1.24763 10.3675 1.27627C10.3388 1.27627 10.3102 1.30491 10.2815 1.30491C10.1956 1.36219 10.0811 1.41947 9.99515 1.47675C9.96651 1.47675 9.96651 1.50539 9.93787 1.50539C9.85195 1.56267 9.76603 1.61995 9.68011 1.70587C9.65147 1.70587 9.65147 1.73451 9.62283 1.73451C9.53691 1.79179 9.45099 1.8777 9.39372 1.93498C9.36508 1.96362 9.36508 1.96362 9.33644 1.99226C9.25052 2.07818 9.19324 2.13546 9.13596 2.22138C9.1646 2.25002 9.13596 2.27866 9.13596 2.3073C9.07868 2.39321 9.0214 2.45049 8.96412 2.53641C8.93548 2.56505 8.93548 2.59369 8.90684 2.62233C8.84956 2.70825 8.82092 2.76553 8.76364 2.85145C8.735 2.88009 8.735 2.90873 8.70636 2.96601C8.10493 4.05431 8.01901 5.42901 8.64909 6.63188ZM12.1718 1.84907C13.8329 1.84907 15.1789 3.19512 15.1789 4.82758C15.1789 6.46004 13.8329 7.83474 12.1718 7.83474C10.5107 7.83474 9.1646 6.48868 9.1646 4.82758C9.1646 3.16648 10.5107 1.84907 12.1718 1.84907Z" fill="#594194"/>
<path d="M12.1717 7.83463C13.8325 7.83463 15.1789 6.48828 15.1789 4.82747C15.1789 3.16666 13.8325 1.82031 12.1717 1.82031C10.5109 1.82031 9.16455 3.16666 9.16455 4.82747C9.16455 6.48828 10.5109 7.83463 12.1717 7.83463Z" fill="#BCAFCF"/>
<path d="M7.50363 22.6982C7.18859 23.2996 6.759 23.7865 6.21484 24.1588C6.27212 24.1015 6.35804 24.0729 6.41532 24.0156L12.1719 19.5192L9.99527 17.8008L7.50363 22.6982Z" fill="#8EC640"/>
<path d="M7.50358 22.6989L9.99523 17.8015L9.76611 17.6011C8.04773 16.255 7.7327 13.7633 9.07876 12.0163C9.53699 11.4149 10.1384 11.0139 10.7685 10.7562V10.7275C10.3962 10.8707 10.0525 11.0712 9.70883 11.329L1.5179 17.7729C1.11695 18.0879 0.77327 18.4889 0.544153 18.8898C0.486873 18.9758 0.458234 19.0617 0.400955 19.1762C0.372315 19.2622 0.315036 19.3481 0.286396 19.434C0.229117 19.5772 0.200477 19.6917 0.143198 19.8349C0.143198 19.8636 0.114558 19.8922 0.114558 19.9209C0.0859189 20.0068 0.0859189 20.0927 0.0572792 20.1786C0.0572792 20.2359 0.0286396 20.2932 0.0286396 20.3505C0.0286396 20.4077 0.0286396 20.465 0 20.4937C0 20.5796 0 20.6655 0 20.7514C0 20.7801 0 20.8087 0 20.8373C0 20.9519 0 21.0378 0 21.1524C0 21.181 0 21.181 0 21.2096C0 21.3242 0.0286396 21.4388 0.0286396 21.5533V21.582C0.0572792 21.6965 0.0859189 21.8111 0.114558 21.9543C0.143198 22.0688 0.171838 22.1834 0.229117 22.298C0.229117 22.3266 0.257757 22.3552 0.257757 22.3552C0.286396 22.4412 0.343675 22.5557 0.372315 22.6416C0.372315 22.6703 0.400955 22.6703 0.400955 22.6989C0.458234 22.7848 0.515513 22.8994 0.572792 22.9853C0.572792 23.0139 0.601432 23.0139 0.601432 23.0426C0.658711 23.1285 0.74463 23.2431 0.801909 23.329C0.801909 23.329 0.801909 23.3576 0.830549 23.3576C0.945107 23.5008 1.08831 23.644 1.20286 23.7872L1.2315 23.8159C1.3747 23.9304 1.5179 24.0736 1.6611 24.1595C1.6611 24.1595 1.6611 24.1595 1.68974 24.1595C1.77566 24.2168 1.86158 24.2741 1.94749 24.3314C2.00477 24.36 2.03341 24.36 2.06205 24.3886C2.14797 24.4459 2.23389 24.4746 2.31981 24.5032C2.34845 24.5318 2.40573 24.5318 2.43437 24.5605C2.52029 24.5891 2.6062 24.6178 2.69212 24.6464C2.72076 24.6464 2.77804 24.675 2.80668 24.675C2.8926 24.7037 2.97852 24.7323 3.06444 24.7323C3.09308 24.7323 3.15036 24.761 3.179 24.761C3.26492 24.7896 3.35084 24.7896 3.43675 24.7896C3.49403 24.7896 3.52267 24.7896 3.57995 24.8182C3.66587 24.8182 3.72315 24.8182 3.80907 24.8469C3.86635 24.8469 3.92363 24.8469 3.98091 24.8469C4.03819 24.8469 4.09547 24.8469 4.15274 24.8469C4.23866 24.8469 4.32458 24.8469 4.38186 24.8182C4.4105 24.8182 4.46778 24.8182 4.49642 24.8182C4.58234 24.8182 4.6969 24.7896 4.78282 24.761C4.81146 24.761 4.81146 24.761 4.8401 24.761C4.95465 24.7323 5.06921 24.7037 5.15513 24.675H5.18377C5.29833 24.6464 5.41289 24.5891 5.52745 24.5605C5.642 24.5032 5.75656 24.4459 5.87112 24.3886C5.98568 24.3314 6.0716 24.2741 6.18616 24.1882C6.75895 23.8159 7.18854 23.3003 7.50358 22.6989ZM5.81384 23.2431C4.49642 24.2741 2.63484 24.045 1.60382 22.7275C0.572792 21.4388 0.801909 19.5486 2.11933 18.5175C3.43675 17.4865 5.29833 17.7156 6.32936 19.033C7.36038 20.3505 7.13126 22.2407 5.81384 23.2431Z" fill="#18B36D"/>
<path d="M0.429519 19.1187C0.429519 19.1474 0.400879 19.1474 0.400879 19.176C0.458158 19.0901 0.486798 18.9755 0.544077 18.8896L0.429519 19.1187Z" fill="#D49639"/>
<path d="M10.7686 10.7841C11.1981 10.6409 11.5991 10.555 12.0287 10.5264C11.5991 10.555 11.1695 10.6123 10.7686 10.7841Z" fill="#D49639"/>
<path d="M6.06841 23.0423C7.25124 21.8765 7.26511 19.9727 6.09939 18.7898C4.93367 17.607 3.02979 17.5931 1.84696 18.7589C0.664129 19.9246 0.650261 21.8285 1.81599 23.0113C2.98171 24.1941 4.88559 24.208 6.06841 23.0423Z" fill="#A4D5A5"/>
<path d="M16.8687 22.6982L14.3771 17.8008L12.2004 19.5192L17.957 24.0156C18.0143 24.0729 18.1002 24.1015 18.1575 24.1588C17.6133 23.8151 17.1551 23.2996 16.8687 22.6982Z" fill="#FBAF42"/>
<path d="M24.3436 20.751C24.3436 20.6651 24.3436 20.5792 24.315 20.4933C24.315 20.436 24.315 20.3787 24.2863 20.3501C24.2863 20.2928 24.2577 20.2355 24.2577 20.1783C24.2291 20.0923 24.2291 20.0064 24.2004 19.9205C24.2004 19.8919 24.2004 19.8632 24.1718 19.8346C24.1431 19.6914 24.0859 19.5768 24.0286 19.4336C23.9999 19.3477 23.9427 19.2618 23.914 19.1759C23.8567 19.0899 23.8281 18.9754 23.7708 18.8895C23.5131 18.4599 23.198 18.0876 22.7971 17.7725L14.6634 11.3572C14.3484 11.0995 13.9761 10.899 13.6038 10.7559V10.7845C14.2625 11.0422 14.8353 11.4432 15.2935 12.0446C16.6396 13.763 16.3245 16.2833 14.6061 17.6293L14.377 17.8298L16.8687 22.7272C17.1837 23.3286 17.6133 23.8155 18.1575 24.1878C18.272 24.2451 18.3579 24.331 18.4725 24.3883C18.5871 24.4456 18.7016 24.5028 18.8162 24.5601C18.9307 24.6174 19.0453 24.646 19.1598 24.6747H19.1885C19.303 24.7033 19.4176 24.7319 19.5035 24.7606C19.5322 24.7606 19.5608 24.7606 19.5608 24.7606C19.6467 24.7892 19.7613 24.7892 19.8472 24.8179C19.8758 24.8179 19.9331 24.8179 19.9618 24.8179C20.0477 24.8179 20.1336 24.8179 20.1909 24.8465C20.2482 24.8465 20.3054 24.8465 20.3627 24.8465C20.42 24.8465 20.4773 24.8465 20.5345 24.8465C20.6205 24.8465 20.6777 24.8465 20.7637 24.8179C20.8209 24.8179 20.8496 24.8179 20.9069 24.7892C20.9928 24.7892 21.0787 24.7606 21.1646 24.7606C21.1933 24.7606 21.2505 24.7319 21.2792 24.7319C21.3651 24.7033 21.451 24.6747 21.5369 24.6747C21.5656 24.6747 21.6229 24.646 21.6515 24.646C21.7374 24.6174 21.8233 24.5887 21.9092 24.5601C21.9379 24.5315 21.9952 24.5315 22.0238 24.5028C22.1097 24.4742 22.1956 24.4169 22.2816 24.3883C22.3102 24.3596 22.3388 24.3596 22.3675 24.331C22.4534 24.2737 22.5393 24.2164 22.6252 24.1592C22.6252 24.1592 22.6252 24.1592 22.6539 24.1305C22.7971 24.016 22.9403 23.9014 23.0835 23.7868L23.1121 23.7582C23.2553 23.615 23.3699 23.5004 23.4844 23.3286C23.4844 23.3286 23.4844 23.3 23.5131 23.3C23.599 23.2141 23.6563 23.0995 23.7135 23.0136C23.7135 22.9849 23.7422 22.9849 23.7422 22.9563C23.7995 22.8704 23.8567 22.7558 23.914 22.6699C23.914 22.6413 23.9427 22.6413 23.9427 22.6126C23.9999 22.5267 24.0286 22.4121 24.0572 22.3262C24.0572 22.2976 24.0859 22.2689 24.0859 22.2689C24.1431 22.1544 24.1718 22.0398 24.2004 21.9253C24.2291 21.8107 24.2577 21.6961 24.2863 21.553V21.5243C24.315 21.4098 24.315 21.2952 24.315 21.1806C24.315 21.152 24.315 21.152 24.315 21.1234C24.315 21.0088 24.315 20.9229 24.315 20.8083C24.3436 20.8083 24.3436 20.7797 24.3436 20.751ZM22.7684 22.7272C21.7374 24.0446 19.8472 24.2737 18.5584 23.2427C17.241 22.2117 17.0119 20.3214 18.0429 19.0327C19.0739 17.7152 20.9641 17.4861 22.2529 18.5172C23.5417 19.5482 23.7708 21.4384 22.7684 22.7272Z" fill="#EC2027"/>
<path d="M23.9141 19.1187L23.7996 18.8896C23.8568 18.9755 23.8855 19.0614 23.9428 19.176C23.9428 19.1474 23.9428 19.1187 23.9141 19.1187Z" fill="#D49639"/>
<path d="M13.5751 10.7841C13.1741 10.6123 12.7445 10.555 12.3149 10.5264C12.7445 10.555 13.1741 10.6409 13.5751 10.7841Z" fill="#D49639"/>
<path d="M13.8901 16.9131C12.8304 17.6577 11.4557 17.6577 10.4247 16.9417L9.99512 17.8009L12.1717 19.5193L14.3483 17.8009L13.8901 16.9131Z" fill="#A9B54B"/>
<path d="M14.5204 12.646C15.5514 13.9635 15.3223 15.825 14.0049 16.8561C13.9762 16.8847 13.9476 16.9133 13.9189 16.9133L14.3772 17.8012L14.6063 17.6007C16.3247 16.2546 16.6397 13.763 15.2936 12.016C14.8354 11.4145 14.234 11.0136 13.6039 10.7559L13.1743 11.615C13.6612 11.8441 14.1481 12.1592 14.5204 12.646Z" fill="#8C1827"/>
<path d="M9.79476 16.3403C8.76373 15.0229 8.99285 13.1613 10.3103 12.1303C10.5967 11.9012 10.8831 11.758 11.1981 11.6434L10.7685 10.7842C10.1098 11.042 9.537 11.4429 9.07876 12.0444C7.7327 13.7627 8.04774 16.283 9.76611 17.6291L9.99523 17.8296L10.4248 16.9704C10.1957 16.7985 9.96659 16.5694 9.79476 16.3403Z" fill="#0E814B"/>
<path d="M12.1719 10.5264C12.1146 10.5264 12.086 10.5264 12.0287 10.5264C11.5991 10.555 11.1695 10.6409 10.7686 10.7841L11.1981 11.6434C11.8282 11.4429 12.5156 11.4429 13.1456 11.6434L13.5752 10.7841C13.1743 10.6409 12.7447 10.5264 12.3151 10.5264C12.2865 10.5264 12.2292 10.5264 12.1719 10.5264Z" fill="#926BAA"/>
<path d="M23.2388 21.8681C23.7781 20.2973 22.9419 18.5868 21.3711 18.0475C19.8003 17.5083 18.0898 18.3445 17.5505 19.9153C17.0112 21.4861 17.8475 23.1966 19.4182 23.7359C20.989 24.2751 22.6996 23.4389 23.2388 21.8681Z" fill="#F4B095"/>
<path d="M10.4248 16.9423C11.4558 17.6583 12.8305 17.6583 13.8902 16.9137L12.1718 13.5342L10.4248 16.9423Z" fill="#C9D5AB"/>
<path d="M14.5203 12.6457C14.148 12.1874 13.6611 11.8438 13.1456 11.6719L12.1719 13.5621L13.8903 16.9416C13.9189 16.913 13.9475 16.8843 13.9762 16.8843C15.3222 15.8247 15.5513 13.9631 14.5203 12.6457Z" fill="#CE4F5F"/>
<path d="M11.198 11.6436C10.8829 11.7581 10.5965 11.9013 10.3101 12.1304C8.99271 13.1615 8.76359 15.0517 9.79462 16.3404C9.9951 16.5696 10.1956 16.7987 10.4533 16.9419L12.2003 13.5338L11.198 11.6436Z" fill="#62A884"/>
<path d="M13.1455 11.6728C12.5154 11.4437 11.8281 11.4437 11.198 11.6728L12.1717 13.563L13.1455 11.6728Z" fill="#9874B0"/>
</g>
</g>
<defs>
<clipPath id="clip0_1390_18156">
<rect width="25" height="24" fill="white" transform="translate(0 0.875)"/>
</clipPath>
</defs>
</svg>
