<svg width="24" height="25" viewBox="0 0 24 25" fill="none" xmlns="http://www.w3.org/2000/svg">
<g clip-path="url(#clip0_1390_18144)">
<path d="M24 0.875H0V24.875H24V0.875Z" fill="#0F63AC"/>
<path d="M22.5355 14.3395C22.3932 15.4175 22.0881 16.4344 21.6406 17.3904C19.9322 20.97 16.2915 23.4514 12.0406 23.4514C6.20334 23.4514 1.46436 18.7124 1.46436 12.8751C1.46436 7.03781 6.20334 2.29883 12.0406 2.29883C16.2711 2.29883 19.9118 4.75985 21.6 8.33951C22.0271 9.25476 22.3525 10.2514 22.4949 11.2887H13.1796L9.90503 17.3904H6.46775L11.3084 8.35984V8.33951H18.061C16.6779 6.52934 14.5016 5.34968 12.0406 5.34968C7.89147 5.34968 4.5152 8.72595 4.5152 12.8751C4.5152 17.0243 7.89147 20.4005 12.0406 20.4005C14.5016 20.4005 16.6983 19.2209 18.061 17.37H13.2203L14.8881 14.3192H22.5355V14.3395Z" fill="#FCEE2B"/>
</g>
<defs>
<clipPath id="clip0_1390_18144">
<rect width="24" height="24" fill="white" transform="translate(0 0.875)"/>
</clipPath>
</defs>
</svg>
