<svg width="24" height="25" viewBox="0 0 24 25" fill="none" xmlns="http://www.w3.org/2000/svg">
<path d="M19.0806 12.8026C21.5829 11.0366 23.3744 8.37319 24 5.27548H20.1896C19.4218 7.90998 17.4313 9.99442 14.8436 10.8919C14.7014 10.9498 14.5877 10.9787 14.4455 11.0077C14.1043 11.1235 13.7346 11.2103 13.3649 11.2682C13.3934 11.0656 13.4502 10.8629 13.5071 10.6603C13.6493 10.1681 13.8199 9.70492 14.0474 9.24171C15.128 6.95461 17.1754 5.24653 19.6777 4.63857V0.875C16.5782 1.42506 13.8768 3.10419 12.0569 5.44919C10.1801 3.04629 7.45024 1.36716 4.32227 0.875V4.60962C6.88152 5.18863 8.98578 6.92566 10.0664 9.21276C10.2938 9.64701 10.4645 10.1392 10.5782 10.6024C10.6351 10.805 10.6919 11.0366 10.7204 11.2393C10.3507 11.1814 9.98104 11.0945 9.61137 11.0077C9.44076 10.9498 9.27014 10.8919 9.09953 10.834C6.54028 9.93652 4.52133 7.82313 3.75355 5.21758H0C0.625592 8.31529 2.41706 10.9787 4.91943 12.7447C2.41706 14.5397 0.625592 17.2031 0 20.3008H3.81043C4.5782 17.6953 6.59716 15.6108 9.1564 14.7134C9.29858 14.6555 9.46919 14.5976 9.63981 14.5686C10.0095 14.4528 10.4076 14.366 10.8057 14.337C10.7773 14.5686 10.7204 14.7713 10.6635 15.0029C10.5213 15.5529 10.3223 16.074 10.0948 16.5662C8.95735 18.8243 6.85308 20.5614 4.32227 21.1404V24.875C7.45024 24.3828 10.2085 22.7037 12.0569 20.3008C13.9052 22.6748 16.5782 24.3539 19.6777 24.875V21.1114C17.1754 20.5035 15.128 18.7954 14.0474 16.5372C13.7915 16.0451 13.6209 15.495 13.4787 14.945C13.4218 14.7423 13.3934 14.5397 13.3365 14.3081C13.7346 14.366 14.1043 14.4528 14.4739 14.5686C14.5877 14.5976 14.7299 14.6555 14.8436 14.6844C17.4028 15.5819 19.3934 17.6663 20.1896 20.2719H24C23.346 17.2031 21.5545 14.5397 19.0806 12.8026Z" fill="url(#paint0_linear_1390_18143)"/>
<defs>
<linearGradient id="paint0_linear_1390_18143" x1="21.7301" y1="2.95003" x2="1.90216" y2="22.4256" gradientUnits="userSpaceOnUse">
<stop stop-color="#FFC835"/>
<stop offset="0.6" stop-color="#F26242"/>
<stop offset="1" stop-color="#EE2649"/>
</linearGradient>
</defs>
</svg>
