<svg width="24" height="25" viewBox="0 0 24 25" fill="none" xmlns="http://www.w3.org/2000/svg">
<g clip-path="url(#clip0_1390_18048)">
<path d="M11.9336 14.8828C11.5859 14.8828 11.3086 15.1602 11.3086 15.5039C11.3086 15.8516 11.5859 16.1289 11.9336 16.1289C12.2812 16.1289 12.5586 15.8516 12.5586 15.5039C12.5586 15.1602 12.2812 14.8828 11.9336 14.8828Z" fill="#074F31"/>
<path d="M11.9336 10.8633C12.2812 10.8633 12.5586 10.5781 12.5586 10.2383C12.5586 9.89063 12.2812 9.61328 11.9336 9.61328C11.5859 9.61328 11.3086 9.89063 11.3086 10.2383C11.3086 10.5781 11.5859 10.8633 11.9336 10.8633Z" fill="#074F31"/>
<path d="M24 7.90625C24 4.02734 20.8555 0.875 16.9727 0.875C15.0352 0.875 13.2773 1.66406 12.0039 2.93359C10.7305 1.66406 8.97266 0.875 7.03125 0.875C3.15234 0.875 0 4.02734 0 7.90625C0 9.84766 0.789062 11.6055 2.05859 12.8789C0.789062 14.1445 0 15.9023 0 17.8438C0 21.7305 3.15234 24.875 7.03125 24.875C8.97266 24.875 10.7305 24.0859 12.0039 22.8164C13.2773 24.0859 15.0352 24.875 16.9727 24.875C20.8555 24.875 24.0078 21.7227 24.0078 17.8438C24.0078 15.9023 23.2188 14.1445 21.9453 12.8711C23.2188 11.6055 24 9.84766 24 7.90625ZM12.0039 2.93359C12.8906 2.93359 13.7539 3.05469 14.582 3.27734L12.0039 5.84766L9.42578 3.26953C10.25 3.04688 11.1133 2.93359 12.0039 2.93359ZM4.97656 12.8711L2.40234 15.4492C2.17969 14.6289 2.05859 13.7656 2.05859 12.8789C2.05859 11.9883 2.17969 11.125 2.40234 10.3086L4.97656 12.8711ZM7.03125 12.8711C7.03125 11.0312 8.03516 9.41797 9.52734 8.5625C10.1523 8.20312 10.8633 7.96875 11.625 7.91406C11.6328 7.91406 11.6328 7.91406 11.6367 7.91406C11.7578 7.90625 11.8828 7.90234 12.0078 7.90234C12.0469 7.90234 12.0859 7.90234 12.1172 7.90234C13.3281 7.98828 14.2773 8.99609 14.2773 10.2305C14.2773 11.5156 13.2461 12.5586 11.9648 12.5703C11.9609 12.5703 11.9453 12.5703 11.9414 12.5703C11.9336 12.5703 11.9219 12.5703 11.9141 12.5703C11.4609 12.5703 11.0312 12.6758 10.6562 12.8672C9.67969 13.3438 9.01172 14.3477 9.01172 15.5C9.01172 16.125 9.20703 16.7031 9.53906 17.1836C8.03516 16.332 7.03125 14.7188 7.03125 12.8711ZM12.0039 22.8164C11.1133 22.8164 10.25 22.6953 9.43359 22.4727L12.0039 19.9023L14.5742 22.4727C13.7539 22.7031 12.8906 22.8164 12.0039 22.8164ZM14.2539 17.3086C13.5781 17.6523 12.8164 17.8438 12.0039 17.8438H11.9336C11.9141 17.8438 11.8945 17.8438 11.8789 17.8438C11.8516 17.8438 11.8281 17.8438 11.8008 17.8438C11.7969 17.8438 11.7891 17.8438 11.7812 17.8438C10.5664 17.7617 9.60156 16.7539 9.60156 15.5117C9.60156 14.2188 10.6484 13.1758 11.9414 13.1758C12.4062 13.1758 12.8398 13.0664 13.2305 12.8789C14.2031 12.3984 14.875 11.3984 14.875 10.2461C14.875 9.57031 14.6484 8.94531 14.2578 8.44922C15.8711 9.26953 16.9805 10.9453 16.9805 12.8828C16.9727 14.8125 15.8672 16.4883 14.2539 17.3086ZM21.6055 15.4492L19.0352 12.8789V12.8711L21.6055 10.3008C21.8281 11.1211 21.9453 11.9844 21.9453 12.8711C21.9453 13.7656 21.8281 14.6289 21.6055 15.4492Z" fill="#074F31"/>
<path d="M8.99609 15.5039C8.99609 14.3477 9.66406 13.3438 10.6406 12.8711C11.0273 12.6836 11.4531 12.5742 11.9023 12.5742C11.9102 12.5742 11.9219 12.5742 11.9258 12.5742C11.9336 12.5742 11.9453 12.5742 11.9531 12.5742C13.2305 12.5625 14.2656 11.5156 14.2656 10.2383C14.2656 9.00391 13.3125 7.99609 12.1055 7.90625C12.0664 7.90625 12.0273 7.90625 11.9961 7.90625C11.8711 7.90625 11.75 7.91406 11.625 7.91797C11.6172 7.91797 11.6172 7.91797 11.6133 7.91797C10.8516 7.97656 10.1445 8.20312 9.51562 8.56641C8.02734 9.42578 7.02734 11.0391 7.02734 12.8789C7.02734 14.7227 8.02734 16.332 9.51953 17.1953C9.19141 16.7148 8.99609 16.1367 8.99609 15.5039ZM11.9336 9.60938C12.2812 9.60938 12.5586 9.88672 12.5586 10.2305C12.5586 10.5781 12.2812 10.8555 11.9336 10.8555C11.5859 10.8555 11.3086 10.5703 11.3086 10.2305C11.3086 9.89062 11.5859 9.60938 11.9336 9.60938Z" fill="#D2AC67"/>
<path d="M14.2539 8.44141C14.6367 8.94141 14.8711 9.5625 14.8711 10.2383C14.8711 11.3984 14.2031 12.3945 13.2266 12.8711C12.8359 13.0625 12.3984 13.168 11.9336 13.168C10.6406 13.168 9.59766 14.2148 9.59766 15.5039C9.59766 16.7461 10.5586 17.7539 11.7773 17.8359C11.7812 17.8359 11.7891 17.8359 11.7969 17.8359C11.8203 17.8359 11.8437 17.8359 11.8711 17.8359C11.8906 17.8359 11.9102 17.8359 11.9258 17.8359H11.9961C12.8086 17.8359 13.5703 17.6406 14.2461 17.3008C15.8594 16.4805 16.9688 14.8047 16.9688 12.8672C16.9727 10.9375 15.8672 9.26172 14.2539 8.44141ZM11.9336 16.1367C11.5859 16.1367 11.3086 15.8594 11.3086 15.5117C11.3086 15.1641 11.5859 14.8867 11.9336 14.8867C12.2812 14.8867 12.5586 15.1641 12.5586 15.5117C12.5586 15.8516 12.2812 16.1367 11.9336 16.1367Z" fill="#D2AC67"/>
<path d="M4.97656 12.8789V12.8711L4.97266 12.8789H4.97656Z" fill="#074F31"/>
<path d="M19.0273 12.8789H19.0352L19.0273 12.8711V12.8789Z" fill="#074F31"/>
<path d="M2.05859 12.8789C2.05859 13.7656 2.17969 14.6289 2.40234 15.4492L4.97266 12.8789L2.40234 10.3086C2.17969 11.1211 2.05859 11.9844 2.05859 12.8789Z" fill="white"/>
<path d="M14.5742 3.26953C13.7539 3.04687 12.8906 2.92969 11.9961 2.92969C11.1094 2.92969 10.2461 3.04687 9.42578 3.26953L11.9961 5.83984L14.5742 3.26953Z" fill="white"/>
<path d="M19.0352 12.8789L21.6055 15.4492C21.8281 14.6289 21.9453 13.7656 21.9453 12.8789C21.9453 11.9883 21.8281 11.125 21.6055 10.3086L19.0352 12.8789Z" fill="white"/>
</g>
<defs>
<clipPath id="clip0_1390_18048">
<rect width="24" height="24" fill="white" transform="translate(0 0.875)"/>
</clipPath>
</defs>
</svg>
