<svg width="24" height="25" viewBox="0 0 24 25" fill="none" xmlns="http://www.w3.org/2000/svg">
<g clip-path="url(#clip0_1390_18227)">
<path d="M11.8485 21.4605C13.1694 21.4605 14.4293 20.9525 15.3641 19.9974C16.2989 19.0626 16.8273 17.8026 16.8273 16.4817C16.8273 15.1608 16.3192 13.9008 15.3641 12.966C14.4293 12.0312 13.1694 11.5029 11.8485 11.5029C10.5275 11.5029 9.2676 12.0109 8.3328 12.966C7.37767 13.9008 6.86963 15.1608 6.86963 16.4817C6.86963 17.8026 7.39799 19.0626 8.3328 19.9974C9.2676 20.9525 10.5072 21.4605 11.8485 21.4605ZM11.8485 13.2505C12.3362 13.2505 12.7426 13.657 12.7426 14.1447C12.7426 14.6324 12.3362 15.0389 11.8485 15.0389C11.3607 15.0389 10.9543 14.6324 10.9543 14.1447C10.9543 13.657 11.3607 13.2505 11.8485 13.2505ZM11.8485 16.7459C13.2913 16.7459 14.47 15.5672 14.47 14.1244C14.47 13.535 14.2871 13.0067 13.9619 12.5799C15.3438 13.3318 16.2989 14.795 16.2989 16.4817C16.2989 18.9406 14.3074 20.9322 11.8485 20.9322C11.8078 20.9322 11.7672 20.9322 11.7469 20.9322C10.6495 20.8712 9.75532 19.9567 9.75532 18.839C9.75532 17.701 10.6901 16.7459 11.8485 16.7459Z" fill="#19AAE2"/>
<path d="M11.8483 19.7336C12.336 19.7336 12.7424 19.3272 12.7424 18.8395C12.7424 18.3517 12.336 17.9453 11.8483 17.9453C11.3605 17.9453 10.9541 18.3517 10.9541 18.8395C10.9541 19.3272 11.3605 19.7336 11.8483 19.7336Z" fill="#19AAE2"/>
<path d="M18.6969 17.9043C17.5385 20.5462 14.917 22.3751 11.8484 22.3751C8.77985 22.3751 6.15834 20.5258 5 17.9043C5 17.945 5 17.9856 5 18.0263C5 21.8061 8.06859 24.8747 11.8484 24.8747C15.6283 24.8747 18.6969 21.8061 18.6969 18.0263C18.6969 17.9856 18.6969 17.945 18.6969 17.9043Z" fill="#19AAE2"/>
<path d="M8.94241 9.02403C9.40981 10.162 10.5275 10.9749 11.8281 10.9749C13.1287 10.9749 14.2667 10.162 14.7341 9.02403C14.8764 8.65823 14.978 8.2518 14.978 7.82504C14.978 6.56509 14.1854 6.40252 14.1854 5.93512C14.1854 5.46772 14.6528 4.83774 13.718 4.04519C14.1854 4.83774 13.4132 5.00032 13.4132 5.77254C13.4132 6.54477 13.718 6.56509 13.718 7.19507C13.718 7.54054 13.4335 7.82504 13.088 7.82504C12.7426 7.82504 12.4581 7.54054 12.4581 7.19507C12.4581 6.56509 13.088 5.93512 13.088 4.98C13.088 4.02487 12.9255 3.72005 12.4581 2.9275C11.9907 2.13495 11.1981 1.50498 11.8281 0.875C10.8933 1.17983 11.3607 2.4601 11.3607 3.23232C11.3607 4.02487 10.7307 4.49227 10.7307 5.4474C10.7307 6.40252 11.1981 6.54477 11.1981 7.17475C11.1981 7.52022 10.9136 7.80472 10.5681 7.80472C10.2227 7.80472 9.93817 7.52022 9.93817 7.17475C9.93817 6.54477 10.243 6.54477 10.243 5.75222C10.243 4.95967 9.45045 4.7971 9.93817 4.02487C9.00337 4.81742 9.47077 5.4474 9.47077 5.9148C9.47077 6.3822 8.67822 6.54477 8.67822 7.80472C8.69854 8.2518 8.77983 8.65823 8.94241 9.02403Z" fill="#19AAE2"/>
</g>
<defs>
<clipPath id="clip0_1390_18227">
<rect width="24" height="24" fill="white" transform="translate(0 0.875)"/>
</clipPath>
</defs>
</svg>
