<svg width="24" height="25" viewBox="0 0 24 25" fill="none" xmlns="http://www.w3.org/2000/svg">
<g clip-path="url(#clip0_1390_18147)">
<mask id="mask0_1390_18147" style="mask-type:luminance" maskUnits="userSpaceOnUse" x="0" y="0" width="24" height="25">
<path d="M0 0.875H24V24.875H0V0.875Z" fill="white"/>
</mask>
<g mask="url(#mask0_1390_18147)">
<path d="M5.37253 5.44381C5.44638 5.42546 5.52022 5.40711 5.59407 5.37041C5.63099 5.35206 5.66791 5.35206 5.70484 5.33372C5.88945 5.29702 6.07406 5.24197 6.25868 5.22362C6.2956 5.22362 6.33252 5.20528 6.35099 5.20528H6.36945C6.44329 5.18693 6.5356 5.18693 6.60945 5.16858C6.62791 5.16858 6.62791 5.16858 6.64637 5.16858C6.73868 5.15023 6.84944 5.15023 6.94175 5.13188C7.05252 5.13188 7.16329 5.11353 7.27406 5.11353C7.38482 5.11353 7.49559 5.11353 7.60636 5.11353H7.62482C8.71405 3.70069 10.3571 2.89335 12.1294 2.89335C13.9202 2.89335 15.6186 3.75573 16.6709 5.18693C17.1878 5.88417 17.5386 6.70986 17.6863 7.57225C17.7417 7.86583 17.7601 8.17775 17.7601 8.48968C17.7601 9.49885 17.4832 10.4897 16.9663 11.3521C16.7263 11.7557 16.4494 12.1227 16.0986 12.453L16.0432 12.5264L14.3817 10.875V15.1502H18.6832L17.4832 13.9576L17.5571 13.9025C17.834 13.6273 18.1109 13.297 18.3509 12.9667C19.237 11.7374 19.7355 10.2878 19.7909 8.78326V8.74656C19.7909 8.67317 19.7909 8.59977 19.7909 8.52638C19.7909 7.62729 19.6432 6.76491 19.3294 5.93922C18.2586 2.89335 15.3602 0.875 12.1294 0.875C9.02789 0.875 6.27714 2.69151 5.07715 5.53555C5.09561 5.53555 5.09561 5.53555 5.11407 5.5172C5.18792 5.49885 5.28022 5.46216 5.37253 5.44381Z" fill="#2094D1"/>
<path d="M18.6832 20.3982C18.5724 20.4349 18.4801 20.4532 18.3694 20.4899C18.3509 20.4899 18.3324 20.4899 18.3324 20.5083C18.2401 20.5266 18.1663 20.545 18.074 20.5633C18.0555 20.5633 18.037 20.5633 18.0186 20.5817C17.9263 20.6 17.834 20.6184 17.7417 20.6367C17.7232 20.6367 17.7047 20.6367 17.6678 20.6551C17.5755 20.6734 17.4647 20.6918 17.3724 20.6918C17.2617 20.7101 17.1509 20.7285 17.0401 20.7285C16.9294 20.7285 16.8186 20.7468 16.7078 20.7468C16.5971 20.7468 16.4863 20.7468 16.394 20.7468H16.3755C15.3048 22.0863 13.6986 22.8569 11.9817 22.8569C10.2279 22.8569 8.60327 22.0679 7.51404 20.6734C6.97866 19.9762 6.60943 19.1688 6.44328 18.3248C6.36944 17.9762 6.33251 17.6092 6.33251 17.2606C6.33251 16.2514 6.60943 15.2606 7.12635 14.3982C7.32943 14.0496 7.58789 13.7193 7.86481 13.4257L7.93866 13.3523L9.60018 14.9854V10.7285H5.28021L6.4802 11.9211L6.42482 11.9945C6.18482 12.2331 5.96328 12.5083 5.74175 12.8019C4.80022 14.1046 4.30176 15.6276 4.30176 17.2422C4.30176 18.2147 4.48637 19.1505 4.81868 20.0312C5.98175 22.967 8.76942 24.8753 11.9632 24.8753C15.0463 24.8753 17.7786 23.0771 18.997 20.2881C18.9786 20.2881 18.9786 20.2881 18.9601 20.3065C18.8678 20.3248 18.7755 20.3615 18.6832 20.3982Z" fill="#2094D1"/>
<path d="M4.46766 19.5905C4.43074 19.4804 4.41228 19.3886 4.37535 19.2785C4.37535 19.2602 4.37535 19.2418 4.35689 19.2418C4.33843 19.1501 4.31997 19.0767 4.30151 18.9849C4.30151 18.9666 4.30151 18.9483 4.28305 18.9299C4.26458 18.8382 4.24612 18.7464 4.22766 18.6547C4.22766 18.6363 4.22766 18.618 4.2092 18.5813C4.19074 18.4895 4.17228 18.3794 4.17228 18.2877C4.15382 18.1776 4.13535 18.0675 4.13535 17.9574C4.13535 17.8473 4.11689 17.7372 4.11689 17.6272C4.11689 17.5171 4.11689 17.407 4.11689 17.3152V17.2969C2.76921 16.2143 1.99383 14.618 1.99383 12.9116C1.99383 11.1134 2.86152 9.42531 4.31997 8.37944C5.0215 7.88403 5.8338 7.53541 6.66457 7.40697C6.97841 7.35192 7.29225 7.31522 7.62456 7.31522C8.58455 7.31522 9.52608 7.55376 10.3568 8.01247C10.763 8.23266 11.1322 8.50788 11.483 8.83816L11.5568 8.89321L9.89531 10.5446H14.1968V6.26935L12.9968 7.46201L12.9414 7.40697C12.6276 7.11339 12.3138 6.85651 11.9815 6.61798C10.7261 5.75559 9.24916 5.29688 7.71687 5.29688H7.66148C6.73841 5.29688 5.8338 5.46201 4.98458 5.77394C2.01229 6.87486 0 9.75559 0 12.9116C0 15.9758 1.80922 18.6914 4.61535 19.9024C4.61535 19.884 4.61535 19.884 4.59689 19.8657C4.54151 19.7739 4.50458 19.6822 4.46766 19.5905Z" fill="#2094D1"/>
<path d="M19.5876 6.0498C19.5876 6.06815 19.606 6.08649 19.606 6.08649C19.6245 6.14154 19.643 6.19659 19.6614 6.25163C19.6799 6.30668 19.6984 6.34337 19.6984 6.39842C19.7168 6.45347 19.7353 6.50851 19.7537 6.58191C19.7537 6.6186 19.7722 6.6553 19.7722 6.692C19.7907 6.76539 19.8091 6.85714 19.8276 6.93053C19.8276 6.94888 19.8276 6.96723 19.8276 6.96723C19.846 7.05897 19.8645 7.15071 19.883 7.24246C19.883 7.26081 19.883 7.27915 19.883 7.27915C19.9014 7.3709 19.9014 7.44429 19.9199 7.53603C19.9383 7.62778 19.9383 7.71952 19.9568 7.81126C19.9753 7.92136 19.9753 8.03145 19.9753 8.14154C19.9753 8.25163 19.9753 8.36172 19.9753 8.49016C19.9753 8.52686 19.9753 8.56356 19.9753 8.60025V8.67365C21.2491 9.73787 21.9691 11.2975 21.9691 12.9489C21.9691 14.692 21.1753 16.3067 19.7722 17.3893C19.0707 17.9214 18.2584 18.2883 17.4091 18.4535C16.1168 18.7104 14.7507 18.4902 13.6061 17.848C13.1999 17.6278 12.8122 17.3526 12.4799 17.0223L12.4061 16.9672L14.0676 15.3159H9.76611V19.5911L10.9846 18.3984L11.0584 18.4535C11.3538 18.7287 11.6676 19.0039 12.0184 19.2425C13.2738 20.1049 14.7507 20.5636 16.283 20.5636H16.3199C17.2984 20.5636 18.2399 20.3801 19.126 20.0498C22.0799 18.8939 23.9999 16.1232 23.9999 12.9489C23.9999 9.9764 22.2645 7.2975 19.5876 6.0498Z" fill="#2094D1"/>
</g>
</g>
<defs>
<clipPath id="clip0_1390_18147">
<rect width="24" height="24" fill="white" transform="translate(0 0.875)"/>
</clipPath>
</defs>
</svg>
