<svg width="16" height="17" viewBox="0 0 16 17" fill="none" xmlns="http://www.w3.org/2000/svg">
<path d="M13.1665 3.58325V10.2499C13.1665 10.5259 12.9425 10.7499 12.6665 10.7499C12.3905 10.7499 12.1665 10.5259 12.1665 10.2499V4.79061L4.35321 12.6039C4.25587 12.7013 4.12785 12.7506 3.99985 12.7506C3.87185 12.7506 3.74383 12.7019 3.6465 12.6039C3.45117 12.4086 3.45117 12.0919 3.6465 11.8966L11.4598 4.08325H5.99985C5.72385 4.08325 5.49985 3.85925 5.49985 3.58325C5.49985 3.30725 5.72385 3.08325 5.99985 3.08325H12.6665C12.7319 3.08325 12.7966 3.09666 12.8579 3.12199C12.9799 3.17266 13.0773 3.26999 13.1286 3.39266C13.1533 3.45333 13.1665 3.51792 13.1665 3.58325Z" fill="#637381"/>
</svg>
