<svg width="25" height="24" viewBox="0 0 25 24" fill="none" xmlns="http://www.w3.org/2000/svg">
<path d="M6.29492 17V18C6.29492 18.5304 6.50563 19.0391 6.88071 19.4142C7.25578 19.7893 7.76449 20 8.29492 20H19.2949C19.8253 20 20.334 19.7893 20.7091 19.4142C21.0842 19.0391 21.2949 18.5304 21.2949 18V7C21.2949 6.46957 21.0842 5.96086 20.7091 5.58579C20.334 5.21071 19.8253 5 19.2949 5H18.2949M10.4735 10.6667C10.4735 10.2246 10.6616 9.80072 10.9965 9.48816C11.3314 9.1756 11.7856 9 12.2592 9C12.7328 9 13.187 9.1756 13.5219 9.48816C13.8568 9.80072 14.0449 10.2246 14.0449 10.6667C14.0449 11.1087 13.8568 11.5326 13.5219 11.8452C13.187 12.1577 12.7328 12.3333 12.2592 12.3333C11.7856 12.3333 11.3314 12.1577 10.9965 11.8452C10.6616 11.5326 10.4735 11.1087 10.4735 10.6667ZM10.4735 10.6667L12.2592 4M2.79492 10.6667C2.79492 10.2246 2.98306 9.80072 3.31794 9.48816C3.65283 9.1756 4.10703 9 4.58063 9C5.05423 9 5.50844 9.1756 5.84332 9.48816C6.17821 9.80072 6.36635 10.2246 6.36635 10.6667C6.36635 11.1087 6.17821 11.5326 5.84332 11.8452C5.50844 12.1577 5.05423 12.3333 4.58063 12.3333C4.10703 12.3333 3.65283 12.1577 3.31794 11.8452C2.98306 11.5326 2.79492 11.1087 2.79492 10.6667ZM2.79492 10.6667L4.58063 4M5.71159 10.6667C5.71159 11.1269 5.33849 11.5 4.87825 11.5C4.41802 11.5 4.04492 11.1269 4.04492 10.6667C4.04492 10.2064 4.41802 9.83333 4.87825 9.83333C5.33849 9.83333 5.71159 10.2064 5.71159 10.6667ZM13.2116 10.6667C13.2116 11.1269 12.8385 11.5 12.3782 11.5C11.918 11.5 11.5449 11.1269 11.5449 10.6667C11.5449 10.2064 11.918 9.83333 12.3782 9.83333C12.8385 9.83333 13.2116 10.2064 13.2116 10.6667ZM4.87825 11.0833C4.87825 11.3135 4.69171 11.5 4.46159 11.5C4.23147 11.5 4.04492 11.3135 4.04492 11.0833C4.04492 10.8532 4.23147 10.6667 4.46159 10.6667C4.69171 10.6667 4.87825 10.8532 4.87825 11.0833ZM12.3782 11.0833C12.3782 11.3135 12.1917 11.5 11.9616 11.5C11.7314 11.5 11.5449 11.3135 11.5449 11.0833C11.5449 10.8532 11.7314 10.6667 11.9616 10.6667C12.1917 10.6667 12.3782 10.8532 12.3782 11.0833Z" stroke="#637381" stroke-width="2" stroke-linecap="round" stroke-linejoin="round"/>
</svg>
