<svg width="25" height="24" viewBox="0 0 25 24" fill="none" xmlns="http://www.w3.org/2000/svg">
<path d="M7.59497 5.60059H13.9949C14.8436 5.60059 15.6576 5.93773 16.2577 6.53784C16.8578 7.13796 17.1949 7.95189 17.1949 8.80059C17.1949 9.64928 16.8578 10.4632 16.2577 11.0633C15.6576 11.6634 14.8436 12.0006 13.9949 12.0006H7.59497V5.60059Z" stroke="#637381" stroke-width="2" stroke-linecap="round" stroke-linejoin="round"/>
<path d="M7.59497 12H14.7949C15.6436 12 16.4576 12.3371 17.0577 12.9373C17.6578 13.5374 17.9949 14.3513 17.9949 15.2C17.9949 16.0487 17.6578 16.8626 17.0577 17.4627C16.4576 18.0629 15.6436 18.4 14.7949 18.4H7.59497V12Z" stroke="#637381" stroke-width="2" stroke-linecap="round" stroke-linejoin="round"/>
</svg>
