<svg width="24" height="25" viewBox="0 0 24 25" fill="none" xmlns="http://www.w3.org/2000/svg">
<path d="M7.41284 22.1328C7.27584 22.1328 7.13885 22.0958 7.01685 22.0188C6.72085 21.8338 6.59084 21.4688 6.70484 21.1388L9.4538 13.1318H7.00281C6.44081 13.1318 5.90979 12.8598 5.58179 12.4038C5.25379 11.9488 5.1648 11.3598 5.3418 10.8279L7.96283 4.13385C8.26583 3.22085 9.0518 2.63184 10.0008 2.63184H14.4798C15.0708 2.63184 15.6168 2.92685 15.9418 3.41985C16.2668 3.91385 16.3208 4.53284 16.0868 5.07484L14.5518 8.63184H16.9988C17.7088 8.63184 18.3438 9.05584 18.6158 9.71184C18.8878 10.3678 18.7388 11.1168 18.2368 11.6188L7.94483 21.9118C7.79883 22.0578 7.60684 22.1328 7.41284 22.1328ZM9.99982 4.13284C9.60182 4.13284 9.43583 4.45384 9.37183 4.64584L6.75079 11.3408C6.72879 11.4098 6.77079 11.4908 6.79779 11.5288C6.82579 11.5678 6.88983 11.6328 7.00183 11.6328H9.8728C10.2598 11.6328 10.6248 11.8208 10.8498 12.1348C11.0748 12.4488 11.1338 12.8558 11.0088 13.2218L9.17682 18.5598L17.1758 10.5598C17.2788 10.4568 17.2538 10.3448 17.2298 10.2878C17.2058 10.2308 17.1438 10.1339 16.9988 10.1339H14.0958C13.6908 10.1339 13.3168 9.93184 13.0938 9.59384C12.8708 9.25584 12.8338 8.83085 12.9938 8.45885L14.7098 4.48285C14.7558 4.37485 14.7168 4.28785 14.6888 4.24585C14.6608 4.20385 14.5978 4.13284 14.4808 4.13284H9.99982ZM9.8728 13.1328H9.88281H9.8728Z" fill="#637381"/>
</svg>
