<svg width="24" height="25" viewBox="0 0 24 25" fill="none" xmlns="http://www.w3.org/2000/svg">
<path d="M22.679 18.9938L22.1631 16.5679V16.5668V16.5658L20.1001 6.8599C20.1001 6.8589 20.1001 6.85785 20.1001 6.85685C20.1001 6.85585 20.0991 6.8548 20.0991 6.8538L19.584 4.42887C19.438 3.74387 19.1291 3.24283 18.6631 2.94083C18.1971 2.63883 17.616 2.55787 16.929 2.70487L14.988 3.11784C14.363 3.25084 13.897 3.53487 13.594 3.92887C13.289 3.10487 12.554 2.63383 11.502 2.63383H9.50195C8.88095 2.63383 8.37895 2.8058 8.00195 3.1088C7.62495 2.8058 7.12295 2.63383 6.50195 2.63383H4.50195C3.09295 2.63383 2.25195 3.47483 2.25195 4.88383V19.8838C2.25195 21.2928 3.09295 22.1338 4.50195 22.1338H6.50195C7.12295 22.1338 7.62495 21.9619 8.00195 21.6589C8.37895 21.9619 8.88095 22.1338 9.50195 22.1338H11.502C12.911 22.1338 13.752 21.2928 13.752 19.8838V8.07389L15.843 17.9079C15.843 17.9089 15.843 17.9088 15.843 17.9098C15.843 17.9108 15.844 17.9109 15.844 17.9119L16.3601 20.3368C16.5061 21.0218 16.815 21.5229 17.281 21.8249C17.596 22.0299 17.9651 22.1319 18.3831 22.1319C18.5821 22.1319 18.7941 22.1088 19.0161 22.0608L20.957 21.6479C21.643 21.5019 22.1441 21.1918 22.4451 20.7268C22.7451 20.2618 22.825 19.6778 22.679 18.9938ZM3.75 8.13285H7.25V16.6329H3.75V8.13285ZM8.75 8.13285H12.25V16.6329H8.75V8.13285ZM9.5 4.13285H11.5C12.089 4.13285 12.25 4.29385 12.25 4.88285V6.63285H8.75V4.88285C8.75 4.29385 8.911 4.13285 9.5 4.13285ZM4.5 4.13285H6.5C7.089 4.13285 7.25 4.29385 7.25 4.88285V6.63285H3.75V4.88285C3.75 4.29385 3.911 4.13285 4.5 4.13285ZM6.5 20.6329H4.5C3.911 20.6329 3.75 20.4719 3.75 19.8829V18.1329H7.25V19.8829C7.25 20.4719 7.089 20.6329 6.5 20.6329ZM11.5 20.6329H9.5C8.911 20.6329 8.75 20.4719 8.75 19.8829V18.1329H12.25V19.8829C12.25 20.4719 12.089 20.6329 11.5 20.6329ZM15.3989 8.62089L18.7881 7.9008L20.54 16.1438L17.1521 16.8638L15.3989 8.62089ZM15.2981 4.5839L17.24 4.17082C17.337 4.14982 17.4521 4.13285 17.5601 4.13285C17.6681 4.13285 17.77 4.14979 17.844 4.19779C17.993 4.29479 18.074 4.54591 18.115 4.73991L18.4751 6.43388L15.0859 7.15385L14.7261 5.45988C14.6071 4.89288 14.7291 4.7039 15.2981 4.5839ZM21.1851 19.9108C21.0881 20.0598 20.837 20.1398 20.644 20.1818C20.643 20.1818 20.6431 20.1818 20.6431 20.1818L18.7009 20.5949C18.5079 20.6359 18.2449 20.6639 18.0969 20.5679C17.9479 20.4709 17.8669 20.2198 17.8259 20.0258L17.4661 18.3318L20.854 17.6119L21.2141 19.3058C21.2531 19.4998 21.2821 19.7608 21.1851 19.9108Z" fill="#637381"/>
</svg>
