<svg width="20" height="20" viewBox="0 0 20 20" fill="none" xmlns="http://www.w3.org/2000/svg">
<path d="M17.5299 3.48499C17.5291 3.48499 17.5291 3.48501 17.5283 3.48418C16.1099 2.81168 14.5375 2.57583 12.8542 2.78166C11.6425 2.93083 10.6175 3.62329 10 4.59329C9.38167 3.62412 8.35746 2.93083 7.14579 2.78166C5.45996 2.57583 3.88922 2.81168 2.47172 3.48418C2.47172 3.48418 2.47174 3.48418 2.47091 3.48418C2.10924 3.65584 1.875 4.02827 1.875 4.43327V15.2708C1.875 15.5991 2.02493 15.9 2.28577 16.0975C2.54577 16.295 2.89258 16.3574 3.20841 16.2691C5.63175 15.5808 7.68084 15.8725 9.65251 17.1867C9.66084 17.1925 9.67083 17.1942 9.67916 17.1992C9.68833 17.2042 9.695 17.2125 9.705 17.2175C9.71416 17.2225 9.72492 17.22 9.73409 17.225C9.81826 17.265 9.90752 17.2917 9.99919 17.2917C10.0909 17.2917 10.1799 17.265 10.2641 17.225C10.2732 17.2209 10.2842 17.2225 10.2934 17.2175C10.3025 17.2125 10.3101 17.205 10.3184 17.1992C10.3267 17.1942 10.3367 17.1925 10.3451 17.1867C12.3167 15.8717 14.365 15.58 16.7891 16.2683C17.1058 16.3583 17.4508 16.295 17.7116 16.0975C17.9724 15.9008 18.1226 15.5991 18.1226 15.2708V4.43327C18.1251 4.02994 17.8916 3.65749 17.5299 3.48499ZM5.61076 14.6608C4.80993 14.6608 3.9825 14.7733 3.125 14.9958V4.55829C4.30833 4.02246 5.57757 3.84669 6.99341 4.02169C8.35174 4.18836 9.375 5.34664 9.375 6.71497V15.5741C8.17917 14.965 6.93076 14.6608 5.61076 14.6608ZM16.875 14.9966C14.6017 14.4058 12.5467 14.595 10.625 15.5759V6.7167C10.625 5.34753 11.6491 4.18999 13.0066 4.02332C13.3583 3.97999 13.7009 3.95832 14.035 3.95832C15.0475 3.95832 15.985 4.15752 16.8742 4.56002V14.9966H16.875ZM12.5 6.87498H15C15.345 6.87498 15.625 7.15498 15.625 7.49998C15.625 7.84498 15.345 8.12498 15 8.12498H12.5C12.155 8.12498 11.875 7.84498 11.875 7.49998C11.875 7.15498 12.155 6.87498 12.5 6.87498ZM14.7917 9.99998C14.7917 10.345 14.5117 10.625 14.1667 10.625H12.5C12.155 10.625 11.875 10.345 11.875 9.99998C11.875 9.65498 12.155 9.37498 12.5 9.37498H14.1667C14.5117 9.37498 14.7917 9.65498 14.7917 9.99998Z" fill="#637381"/>
</svg>
