<svg width="24" height="25" viewBox="0 0 24 25" fill="none" xmlns="http://www.w3.org/2000/svg">
<path d="M18 5.63281H16.75V4.38281C16.75 3.41781 15.965 2.63281 15 2.63281H9C8.035 2.63281 7.25 3.41781 7.25 4.38281V5.63281H6C3.582 5.63281 2.25 6.96481 2.25 9.38281V9.50183V11.6359V18.3828C2.25 20.8008 3.582 22.1328 6 22.1328H18C20.418 22.1328 21.75 20.8008 21.75 18.3828V11.6359V9.50183V9.38281C21.75 6.96481 20.418 5.63281 18 5.63281ZM8.75 4.38281C8.75 4.24481 8.862 4.13281 9 4.13281H15C15.138 4.13281 15.25 4.24481 15.25 4.38281V5.63281H8.75V4.38281ZM3.75 9.38281C3.75 7.80581 4.423 7.13281 6 7.13281H18C19.577 7.13281 20.25 7.80581 20.25 9.38281V9.50183V11.6359C20.25 11.9369 20.079 12.1998 19.804 12.3228C18.939 12.7088 17.465 13.2588 15.358 13.6888C15.255 13.7098 15.144 13.6308 15.084 13.5428C14.359 12.4598 13.207 11.8138 12 11.8138C10.793 11.8138 9.641 12.4598 8.916 13.5428C8.857 13.6318 8.75 13.7118 8.642 13.6888C6.536 13.2588 5.061 12.7088 4.196 12.3228C3.921 12.1998 3.75 11.9369 3.75 11.6359V9.50183V9.38281ZM18 20.6328H6C4.423 20.6328 3.75 19.9598 3.75 18.3828V13.7628C4.7 14.1738 6.223 14.7248 8.341 15.1578C9.031 15.2978 9.749 14.9929 10.162 14.3759C10.608 13.7099 11.295 13.3129 12 13.3129C12.705 13.3129 13.392 13.7099 13.837 14.3759C14.183 14.8929 14.741 15.1918 15.32 15.1918C15.432 15.1918 15.545 15.1808 15.657 15.1578C17.776 14.7248 19.299 14.1738 20.249 13.7628V18.3828C20.25 19.9598 19.577 20.6328 18 20.6328ZM13.02 15.3828C13.02 15.9348 12.572 16.3828 12.02 16.3828C11.468 16.3828 11.015 15.9348 11.015 15.3828C11.015 14.8308 11.457 14.3828 12.01 14.3828H12.02C12.572 14.3828 13.02 14.8308 13.02 15.3828Z" fill="#637381"/>
</svg>
