<svg width="24" height="25" viewBox="0 0 24 25" fill="none" xmlns="http://www.w3.org/2000/svg">
<path d="M18 4.13281H16.75V3.38281C16.75 2.96881 16.414 2.63281 16 2.63281C15.586 2.63281 15.25 2.96881 15.25 3.38281V4.13281H8.75V3.38281C8.75 2.96881 8.414 2.63281 8 2.63281C7.586 2.63281 7.25 2.96881 7.25 3.38281V4.13281H6C3.582 4.13281 2.25 5.46481 2.25 7.88281V18.3828C2.25 20.8008 3.582 22.1328 6 22.1328H18C20.418 22.1328 21.75 20.8008 21.75 18.3828V7.88281C21.75 5.46481 20.418 4.13281 18 4.13281ZM6 5.63281H7.25V6.38281C7.25 6.79681 7.586 7.13281 8 7.13281C8.414 7.13281 8.75 6.79681 8.75 6.38281V5.63281H15.25V6.38281C15.25 6.79681 15.586 7.13281 16 7.13281C16.414 7.13281 16.75 6.79681 16.75 6.38281V5.63281H18C19.577 5.63281 20.25 6.30581 20.25 7.88281V8.63281H3.75V7.88281C3.75 6.30581 4.423 5.63281 6 5.63281ZM18 20.6328H6C4.423 20.6328 3.75 19.9598 3.75 18.3828V10.1328H20.25V18.3828C20.25 19.9598 19.577 20.6328 18 20.6328ZM9.02002 13.3828C9.02002 13.9348 8.57302 14.3828 8.02002 14.3828C7.46802 14.3828 7.01489 13.9348 7.01489 13.3828C7.01489 12.8308 7.45801 12.3828 8.01001 12.3828H8.02002C8.57202 12.3828 9.02002 12.8308 9.02002 13.3828ZM13.02 13.3828C13.02 13.9348 12.573 14.3828 12.02 14.3828C11.468 14.3828 11.0149 13.9348 11.0149 13.3828C11.0149 12.8308 11.458 12.3828 12.01 12.3828H12.02C12.572 12.3828 13.02 12.8308 13.02 13.3828ZM17.02 13.3828C17.02 13.9348 16.573 14.3828 16.02 14.3828C15.468 14.3828 15.0149 13.9348 15.0149 13.3828C15.0149 12.8308 15.458 12.3828 16.01 12.3828H16.02C16.572 12.3828 17.02 12.8308 17.02 13.3828ZM9.02002 17.3828C9.02002 17.9348 8.57302 18.3828 8.02002 18.3828C7.46802 18.3828 7.01489 17.9348 7.01489 17.3828C7.01489 16.8308 7.45801 16.3828 8.01001 16.3828H8.02002C8.57202 16.3828 9.02002 16.8308 9.02002 17.3828ZM13.02 17.3828C13.02 17.9348 12.573 18.3828 12.02 18.3828C11.468 18.3828 11.0149 17.9348 11.0149 17.3828C11.0149 16.8308 11.458 16.3828 12.01 16.3828H12.02C12.572 16.3828 13.02 16.8308 13.02 17.3828ZM17.02 17.3828C17.02 17.9348 16.573 18.3828 16.02 18.3828C15.468 18.3828 15.0149 17.9348 15.0149 17.3828C15.0149 16.8308 15.458 16.3828 16.01 16.3828H16.02C16.572 16.3828 17.02 16.8308 17.02 17.3828Z" fill="#637381"/>
</svg>
