<svg width="20" height="22" viewBox="0 0 20 22" fill="none" xmlns="http://www.w3.org/2000/svg">
<path fill-rule="evenodd" clip-rule="evenodd" d="M2.50001 3.5C1.58001 3.5 0.834015 4.246 0.834015 5.167V14.333C0.834015 15.253 1.58001 16 2.50101 16H8.33401C8.55507 16 8.76708 15.9122 8.92339 15.7559C9.0797 15.5996 9.16751 15.3876 9.16751 15.1665C9.16751 14.9454 9.0797 14.7334 8.92339 14.5771C8.76708 14.4208 8.55507 14.333 8.33401 14.333H2.50101V5.167H15.834V7.75C14.9067 7.56064 13.9425 7.69264 13.1001 8.12426C12.2578 8.55588 11.5874 9.26142 11.1995 10.1247C10.8115 10.9881 10.729 11.9578 10.9656 12.8742C11.2022 13.7907 11.7437 14.5993 12.501 15.167V19.161C12.501 19.532 12.95 19.718 13.211 19.455L14.706 17.961C14.7447 17.9222 14.7907 17.8915 14.8413 17.8705C14.892 17.8495 14.9462 17.8387 15.001 17.8387C15.0558 17.8387 15.1101 17.8495 15.1607 17.8705C15.2113 17.8915 15.2573 17.9222 15.296 17.961L16.789 19.455C16.8473 19.5133 16.9215 19.5531 17.0023 19.5692C17.0832 19.5853 17.167 19.5772 17.2432 19.5457C17.3194 19.5142 17.3845 19.4609 17.4304 19.3924C17.4763 19.324 17.5009 19.2434 17.501 19.161V15.167C18.0189 14.7791 18.4391 14.2758 18.7283 13.697C19.0175 13.1182 19.1677 12.48 19.167 11.833C19.1676 11.1862 19.0173 10.5481 18.7281 9.96954C18.4389 9.39096 18.0187 8.88779 17.501 8.5V5.167C17.501 4.247 16.754 3.5 15.834 3.5H2.50001ZM15 9.333C15.3285 9.33247 15.6538 9.39678 15.9573 9.52223C16.2609 9.64768 16.5367 9.83181 16.769 10.0641C17.0012 10.2963 17.1853 10.5721 17.3108 10.8757C17.4362 11.1792 17.5005 11.5045 17.5 11.833C17.5 12.3275 17.3534 12.8108 17.0787 13.2219C16.804 13.633 16.4135 13.9535 15.9567 14.1427C15.4999 14.3319 14.9972 14.3814 14.5123 14.285C14.0273 14.1885 13.5819 13.9504 13.2322 13.6008C12.8826 13.2511 12.6445 12.8057 12.5481 12.3207C12.4516 11.8358 12.5011 11.3331 12.6903 10.8763C12.8795 10.4195 13.2 10.029 13.6111 9.75433C14.0222 9.47962 14.5056 9.333 15 9.333Z" fill="#637381"/>
<path d="M5 6.83301C4.77895 6.83301 4.56694 6.92082 4.41063 7.07713C4.25432 7.23345 4.1665 7.44545 4.1665 7.66651C4.1665 7.88757 4.25432 8.09957 4.41063 8.25588C4.56694 8.41219 4.77895 8.50001 5 8.50001H10C10.2211 8.50001 10.4331 8.41219 10.5894 8.25588C10.7457 8.09957 10.8335 7.88757 10.8335 7.66651C10.8335 7.44545 10.7457 7.23345 10.5894 7.07713C10.4331 6.92082 10.2211 6.83301 10 6.83301H5ZM4.167 11C4.167 10.54 4.54 10.167 5.001 10.167H7.501C7.72193 10.167 7.93381 10.2548 8.09002 10.411C8.24624 10.5672 8.334 10.7791 8.334 11C8.334 11.2209 8.24624 11.4328 8.09002 11.589C7.93381 11.7452 7.72193 11.833 7.501 11.833H5C4.77908 11.833 4.5672 11.7452 4.41098 11.589C4.25477 11.4328 4.167 11.2209 4.167 11Z" fill="#637381"/>
</svg>
