<svg width="24" height="25" viewBox="0 0 24 25" fill="none" xmlns="http://www.w3.org/2000/svg">
<path d="M21 21.3828H4.5C2.958 21.3828 2 20.4248 2 18.8828V4.38281C2 3.83081 2.448 3.38281 3 3.38281C3.552 3.38281 4 3.83081 4 4.38281V18.8828C4 19.3318 4.051 19.3828 4.5 19.3828H21C21.552 19.3828 22 19.8308 22 20.3828C22 20.9348 21.552 21.3828 21 21.3828ZM20.923 6.99976C20.872 6.87776 20.799 6.76778 20.707 6.67578C20.707 6.67578 20.707 6.6748 20.706 6.6748C20.691 6.6598 20.671 6.65485 20.656 6.64185C20.574 6.56885 20.485 6.50282 20.381 6.46082C20.272 6.41582 20.157 6.39685 20.041 6.39185C20.026 6.39185 20.014 6.38379 19.999 6.38379H19.997C19.997 6.38379 19.997 6.38379 19.996 6.38379H17C16.448 6.38379 16 6.83179 16 7.38379C16 7.93579 16.448 8.38379 17 8.38379H17.592L14.018 11.9708L12.413 10.3759C11.633 9.60185 10.366 9.60286 9.589 10.3809L6.29401 13.6758C5.90301 14.0668 5.90301 14.6988 6.29401 15.0898C6.48901 15.2848 6.74501 15.3828 7.00101 15.3828C7.25701 15.3828 7.51299 15.2848 7.70799 15.0898L11.003 11.7948L12.609 13.3898C13.392 14.1658 14.658 14.1618 15.435 13.3818L19 9.80383V10.3828C19 10.9348 19.448 11.3828 20 11.3828C20.552 11.3828 21 10.9348 21 10.3828V7.38281C21 7.38281 21 7.38284 21 7.38184C21 7.25184 20.973 7.12176 20.923 6.99976Z" fill="#637381"/>
</svg>
