<svg width="14" height="15" viewBox="0 0 14 15" fill="none" xmlns="http://www.w3.org/2000/svg">
<path d="M2.24972 13.1874C2.16513 13.1874 2.08298 13.1863 2.00248 13.1834C1.71082 13.1764 1.45524 12.9897 1.35549 12.7079C1.25516 12.4244 1.33805 12.1159 1.56555 11.9222C2.10922 11.4835 2.3267 10.9982 2.4142 10.6651C1.69262 9.80235 1.31177 8.71324 1.31177 7.50049C1.31177 4.49457 3.65093 2.39575 6.99927 2.39575C10.3476 2.39575 12.6868 4.49516 12.6868 7.50049C12.6868 10.5058 10.3476 12.6052 6.99927 12.6052C6.30685 12.6052 5.64299 12.5113 5.01941 12.3258C4.22433 13.0182 3.1288 13.1874 2.24972 13.1874ZM2.02869 12.3084C2.02985 12.3084 2.03094 12.3084 2.0321 12.3084C2.03035 12.3089 2.02927 12.3089 2.02869 12.3084ZM6.99984 3.27075C4.16659 3.27075 2.18734 5.01024 2.18734 7.50049C2.18734 8.57149 2.54024 9.52 3.20874 10.2433C3.29916 10.3413 3.34054 10.4755 3.31954 10.6079C3.22154 11.2327 2.91365 11.8236 2.43998 12.3084C3.11665 12.2839 4.02661 12.1281 4.58661 11.5308C4.70386 11.4048 4.88527 11.3598 5.0486 11.4164C5.65235 11.6252 6.30859 11.7309 6.99984 11.7309C9.83309 11.7309 11.8123 9.99131 11.8123 7.50106C11.8123 5.01081 9.83309 3.27075 6.99984 3.27075Z" fill="#637381"/>
</svg>
