<svg width="24" height="25" viewBox="0 0 24 25" fill="none" xmlns="http://www.w3.org/2000/svg">
<path d="M13.75 12.3828C13.75 12.7968 13.414 13.1328 13 13.1328H7C6.586 13.1328 6.25 12.7968 6.25 12.3828C6.25 11.9688 6.586 11.6328 7 11.6328H13C13.414 11.6328 13.75 11.9688 13.75 12.3828ZM7 9.13281H10C10.414 9.13281 10.75 8.79681 10.75 8.38281C10.75 7.96881 10.414 7.63281 10 7.63281H7C6.586 7.63281 6.25 7.96881 6.25 8.38281C6.25 8.79681 6.586 9.13281 7 9.13281ZM13 15.6328H7C6.586 15.6328 6.25 15.9688 6.25 16.3828C6.25 16.7968 6.586 17.1328 7 17.1328H13C13.414 17.1328 13.75 16.7968 13.75 16.3828C13.75 15.9688 13.414 15.6328 13 15.6328ZM21.75 11.8828V19.3828C21.75 20.8998 20.517 22.1328 19 22.1328H6C3.582 22.1328 2.25 20.8008 2.25 18.3828V6.38281C2.25 3.96481 3.582 2.63281 6 2.63281H14C16.418 2.63281 17.75 3.96481 17.75 6.38281V9.63281H19.5C20.74 9.63281 21.75 10.6418 21.75 11.8828ZM16.551 20.6328C16.359 20.2578 16.25 19.8328 16.25 19.3828V6.38281C16.25 4.80581 15.577 4.13281 14 4.13281H6C4.423 4.13281 3.75 4.80581 3.75 6.38281V18.3828C3.75 19.9598 4.423 20.6328 6 20.6328H16.551ZM20.25 11.8828C20.25 11.4688 19.913 11.1328 19.5 11.1328H17.75V19.3828C17.75 20.0718 18.311 20.6328 19 20.6328C19.689 20.6328 20.25 20.0718 20.25 19.3828V11.8828Z" fill="#637381"/>
</svg>
