<svg width="20" height="20" viewBox="0 0 20 20" fill="none" xmlns="http://www.w3.org/2000/svg">
<path d="M7.05831 11.275C6.81414 11.0309 6.81414 10.635 7.05831 10.3908C7.30248 10.1467 7.69834 10.1467 7.9425 10.3908L9.37581 11.8242V2.5C9.37581 2.155 9.65581 1.875 10.0008 1.875C10.3458 1.875 10.6258 2.155 10.6258 2.5V11.8242L12.0591 10.3908C12.3033 10.1467 12.6992 10.1467 12.9433 10.3908C13.1875 10.635 13.1875 11.0309 12.9433 11.275L10.4433 13.775C10.3858 13.8325 10.3167 13.8783 10.2401 13.91C10.1634 13.9417 10.0825 13.9583 10.0008 13.9583C9.91915 13.9583 9.83843 13.9417 9.76176 13.91C9.68509 13.8783 9.61581 13.8325 9.55831 13.775L7.05831 11.275ZM15 7.70833C14.655 7.70833 14.375 7.98833 14.375 8.33333C14.375 8.67833 14.655 8.95833 15 8.95833C16.3142 8.95833 16.875 9.51917 16.875 10.8333V15C16.875 16.3142 16.3142 16.875 15 16.875H5C3.68583 16.875 3.125 16.3142 3.125 15V10.8333C3.125 9.51917 3.68583 8.95833 5 8.95833C5.345 8.95833 5.625 8.67833 5.625 8.33333C5.625 7.98833 5.345 7.70833 5 7.70833C2.985 7.70833 1.875 8.81833 1.875 10.8333V15C1.875 17.015 2.985 18.125 5 18.125H15C17.015 18.125 18.125 17.015 18.125 15V10.8333C18.125 8.81833 17.015 7.70833 15 7.70833Z" fill="#637381"/>
</svg>
