<svg width="24" height="25" viewBox="0 0 24 25" fill="none" xmlns="http://www.w3.org/2000/svg">
<path d="M20.53 8.85281L14.53 2.85281C14.389 2.71181 14.199 2.63281 14 2.63281H8C5.582 2.63281 4.25 3.96481 4.25 6.38281V18.3828C4.25 20.8008 5.582 22.1328 8 22.1328H17C19.418 22.1328 20.75 20.8008 20.75 18.3828V9.38281C20.75 9.18381 20.671 8.99281 20.53 8.85281ZM14.75 5.19382L18.189 8.63281H17C15.423 8.63281 14.75 7.95981 14.75 6.38281V5.19382ZM17 20.6328H8C6.423 20.6328 5.75 19.9598 5.75 18.3828V6.38281C5.75 4.80581 6.423 4.13281 8 4.13281H13.25V6.38281C13.25 8.80081 14.582 10.1328 17 10.1328H19.25V18.3828C19.25 19.9598 18.577 20.6328 17 20.6328ZM12.5 10.6328C10.156 10.6328 8.25 12.5388 8.25 14.8828C8.25 17.2268 10.156 19.1328 12.5 19.1328C14.844 19.1328 16.75 17.2268 16.75 14.8828C16.75 12.5388 14.844 10.6328 12.5 10.6328ZM12.5 17.6328C10.983 17.6328 9.75 16.3998 9.75 14.8828C9.75 13.3658 10.983 12.1328 12.5 12.1328C14.017 12.1328 15.25 13.3658 15.25 14.8828C15.25 16.3998 14.017 17.6328 12.5 17.6328ZM13.968 15.2898C14.261 15.5828 14.261 16.0578 13.968 16.3508C13.822 16.4968 13.63 16.5708 13.438 16.5708C13.246 16.5708 13.054 16.4978 12.908 16.3508L11.97 15.4128C11.829 15.2718 11.75 15.0818 11.75 14.8828V13.5708C11.75 13.1568 12.086 12.8208 12.5 12.8208C12.914 12.8208 13.25 13.1568 13.25 13.5708V14.5728L13.968 15.2898Z" fill="#637381"/>
</svg>
