<svg width="24" height="25" viewBox="0 0 24 25" fill="none" xmlns="http://www.w3.org/2000/svg">
<path d="M18 21.1328H6C3.582 21.1328 2.25 19.8008 2.25 17.3828V7.38281C2.25 4.96481 3.582 3.63281 6 3.63281H10C10.199 3.63281 10.39 3.71181 10.53 3.85281L13.3101 6.63281H18C20.418 6.63281 21.75 7.96481 21.75 10.3828V17.3828C21.75 19.8008 20.418 21.1328 18 21.1328ZM6 5.13281C4.423 5.13281 3.75 5.80581 3.75 7.38281V17.3828C3.75 18.9598 4.423 19.6328 6 19.6328H18C19.577 19.6328 20.25 18.9598 20.25 17.3828V10.3828C20.25 8.80581 19.577 8.13281 18 8.13281H13C12.801 8.13281 12.61 8.05381 12.47 7.91281L9.68994 5.13281H6ZM12 13.7828C10.677 13.7828 9.6001 12.7058 9.6001 11.3828C9.6001 10.0598 10.677 8.98282 12 8.98282C13.323 8.98282 14.3999 10.0598 14.3999 11.3828C14.3999 12.7058 13.323 13.7828 12 13.7828ZM12 10.4828C11.504 10.4828 11.1001 10.8868 11.1001 11.3828C11.1001 11.8788 11.504 12.2828 12 12.2828C12.496 12.2828 12.8999 11.8788 12.8999 11.3828C12.8999 10.8868 12.496 10.4828 12 10.4828ZM15.75 17.7328V17.4298C15.75 15.9658 14.6831 14.4828 12.6421 14.4828H11.3589C9.31789 14.4828 8.25098 15.9648 8.25098 17.4298V17.7328C8.25098 18.1468 8.58698 18.4828 9.00098 18.4828C9.41498 18.4828 9.75098 18.1468 9.75098 17.7328V17.4298C9.75098 16.7098 10.2479 15.9828 11.3589 15.9828H12.6421C13.7531 15.9828 14.25 16.7098 14.25 17.4298V17.7328C14.25 18.1468 14.586 18.4828 15 18.4828C15.414 18.4828 15.75 18.1468 15.75 17.7328Z" fill="#637381"/>
</svg>
