<svg width="20" height="20" viewBox="0 0 20 20" fill="none" xmlns="http://www.w3.org/2000/svg">
<g clip-path="url(#clip0_941_19154)">
<path fill-rule="evenodd" clip-rule="evenodd" d="M18.333 10.001C18.333 12.2112 17.455 14.3308 15.8922 15.8937C14.3293 17.4565 12.2097 18.3345 9.99949 18.3345C7.7893 18.3345 5.66965 17.4565 4.10681 15.8937C2.54398 14.3308 1.66599 12.2112 1.66599 10.001C1.66599 7.79083 2.54398 5.67117 4.10681 4.10834C5.66965 2.5455 7.7893 1.66751 9.99949 1.66751C12.2097 1.66751 14.3293 2.5455 15.8922 4.10834C17.455 5.67117 18.333 7.79083 18.333 10.001ZM7.70299 16.262C7.60594 16.0345 7.51853 15.8029 7.44099 15.568C7.20399 14.858 7.01499 14.028 6.88199 13.118C5.97199 12.986 5.14199 12.796 4.43199 12.56C4.19706 12.4821 3.96552 12.3944 3.73799 12.297C4.07251 13.2057 4.60041 14.0308 5.28518 14.7154C5.96994 15.4 6.79424 15.9277 7.70299 16.262ZM3.73899 7.70601C4.07328 6.79726 4.60097 5.97197 5.28557 5.2872C5.97016 4.60244 6.79532 4.07454 7.70399 3.74001C7.60662 3.96755 7.51888 4.19909 7.44099 4.43401C7.20399 5.14401 7.01499 5.97401 6.88199 6.88401C5.97199 7.01701 5.14199 7.20601 4.43199 7.44301C4.19199 7.52301 3.95999 7.61101 3.73899 7.70601ZM12.296 3.74001C12.391 3.96101 12.478 4.19301 12.559 4.43401C12.795 5.14401 12.985 5.97401 13.117 6.88401C14.027 7.01701 14.857 7.20601 15.567 7.44301C15.808 7.52301 16.041 7.61101 16.261 7.70601C15.9267 6.79726 15.399 5.97197 14.7144 5.2872C14.0298 4.60244 13.2046 4.07454 12.296 3.74001ZM16.261 12.297C16.041 12.392 15.808 12.479 15.567 12.56C14.857 12.796 14.027 12.986 13.117 13.118C13.0028 13.9494 12.8161 14.7692 12.559 15.568C12.479 15.809 12.391 16.042 12.296 16.262C13.2045 15.9276 14.0296 15.3998 14.7142 14.7153C15.3988 14.0307 15.9266 13.2056 16.261 12.297ZM9.99998 3.33501C10.117 3.33501 10.257 3.53001 10.318 3.60701C10.535 3.88201 10.767 4.33101 10.977 4.96201C11.144 5.46501 11.289 6.05501 11.402 6.71001C10.4678 6.65339 9.53113 6.65339 8.59699 6.71001C8.70999 6.05501 8.85399 5.46501 9.02199 4.96201C9.23199 4.33201 9.46398 3.88201 9.68098 3.60701C9.74098 3.52901 9.88098 3.33501 9.99898 3.33501H9.99998ZM3.60399 10.32C3.87899 10.537 4.32799 10.768 4.95899 10.979C5.46199 11.146 6.05198 11.291 6.70698 11.403C6.65042 10.4692 6.65042 9.53282 6.70698 8.59901C6.05198 8.71201 5.46199 8.85601 4.95899 9.02401C4.32899 9.23401 3.87899 9.46601 3.60399 9.68301C3.44599 9.80701 3.33199 9.90401 3.33199 10.001C3.33199 10.098 3.44499 10.195 3.60399 10.32ZM8.33299 10C8.33299 10.555 8.35298 11.093 8.39298 11.607C9.46246 11.6878 10.5365 11.6878 11.606 11.607C11.687 10.5372 11.687 9.46281 11.606 8.39301C10.5362 8.31207 9.46179 8.31207 8.39199 8.39301C8.35399 8.90801 8.33198 9.44501 8.33198 10H8.33299ZM9.02298 15.04C8.83758 14.4688 8.69518 13.8845 8.59699 13.292C9.53113 13.3486 10.4678 13.3486 11.402 13.292C11.3041 13.8845 11.162 14.4688 10.977 15.04C10.767 15.67 10.535 16.12 10.318 16.395C10.163 16.592 10.066 16.662 9.99898 16.662C9.93398 16.662 9.83598 16.592 9.68098 16.395C9.46398 16.12 9.23299 15.67 9.02298 15.04ZM15.039 10.977C14.536 11.145 13.946 11.29 13.291 11.402C13.3476 10.4682 13.3476 9.53182 13.291 8.59801C13.946 8.71101 14.536 8.85501 15.039 9.02301C15.669 9.23301 16.119 9.46501 16.394 9.68201C16.594 9.83901 16.666 9.89601 16.666 10C16.666 10.104 16.455 10.271 16.394 10.319C16.119 10.536 15.669 10.766 15.039 10.977Z" fill="#637381"/>
</g>
<defs>
<clipPath id="clip0_941_19154">
<rect width="20" height="20" fill="white"/>
</clipPath>
</defs>
</svg>
