<svg width="24" height="25" viewBox="0 0 24 25" fill="none" xmlns="http://www.w3.org/2000/svg">
<path d="M18 22.1328H13.75V16.8828C13.75 15.9178 12.965 15.1328 12 15.1328C11.035 15.1328 10.25 15.9178 10.25 16.8828V22.1328H6C3.582 22.1328 2.25 20.8008 2.25 18.3828V12.0329C2.25 9.90986 2.83599 9.31682 3.79199 8.52382L9.91199 3.39284C11.121 2.37784 12.879 2.37784 14.088 3.39284L20.208 8.52382C21.164 9.31682 21.75 9.91086 21.75 12.0329V18.3828C21.75 20.8008 20.418 22.1328 18 22.1328ZM15.25 20.6328H18C19.577 20.6328 20.25 19.9598 20.25 18.3828V12.0329C20.25 10.5069 19.998 10.2979 19.251 9.67788L13.125 4.54189C12.473 3.99589 11.527 3.99589 10.875 4.54189L4.74902 9.67788C4.00202 10.2979 3.75 10.5069 3.75 12.0329V18.3828C3.75 19.9598 4.423 20.6328 6 20.6328H8.75V16.8828C8.75 15.0908 10.208 13.6328 12 13.6328C13.792 13.6328 15.25 15.0908 15.25 16.8828V20.6328Z" fill="#F8A698"/>
</svg>
