<svg width="25" height="24" viewBox="0 0 25 24" fill="none" xmlns="http://www.w3.org/2000/svg">
<path d="M19.7949 3H5.79492C4.69035 3 3.79492 3.89543 3.79492 5V19C3.79492 20.1046 4.69035 21 5.79492 21H19.7949C20.8995 21 21.7949 20.1046 21.7949 19V5C21.7949 3.89543 20.8995 3 19.7949 3Z" stroke="#637381" stroke-width="1.5" stroke-linecap="round" stroke-linejoin="round"/>
<path d="M9.29492 10C10.1234 10 10.7949 9.32843 10.7949 8.5C10.7949 7.67157 10.1234 7 9.29492 7C8.46649 7 7.79492 7.67157 7.79492 8.5C7.79492 9.32843 8.46649 10 9.29492 10Z" stroke="#637381" stroke-width="1.5" stroke-linecap="round" stroke-linejoin="round"/>
<path d="M21.7949 15L16.7949 10L5.79492 21" stroke="#637381" stroke-width="1.5" stroke-linecap="round" stroke-linejoin="round"/>
</svg>
