<svg width="24" height="25" viewBox="0 0 24 25" fill="none" xmlns="http://www.w3.org/2000/svg">
<path d="M21.5581 12.6838L19.396 6.19681C18.869 4.61481 17.568 3.63281 16 3.63281H8C6.433 3.63281 5.132 4.61481 4.604 6.19681L2.44312 12.6828C2.31512 13.0648 2.25 13.4648 2.25 13.8698V18.3828C2.25 20.8008 3.582 22.1328 6 22.1328H18C20.418 22.1328 21.75 20.8008 21.75 18.3828V13.8698C21.75 13.4648 21.6851 13.0648 21.5581 12.6838ZM6.02808 6.67081C6.34808 5.70781 7.086 5.13281 8 5.13281H16C16.914 5.13281 17.6509 5.70781 17.9719 6.67081L19.96 12.6328H17.0459C15.7959 12.6328 14.6371 13.3378 13.9441 14.5198C13.5431 15.2058 12.798 15.6328 12.001 15.6328C11.204 15.6328 10.4591 15.2058 10.0581 14.5188C9.36611 13.3378 8.20605 12.6328 6.95605 12.6328H4.04199L6.02808 6.67081ZM18 20.6328H6C4.423 20.6328 3.75 19.9598 3.75 18.3828V14.1328H6.95508C7.66708 14.1328 8.34196 14.5608 8.76196 15.2768C9.43096 16.4218 10.672 17.1328 12 17.1328C13.328 17.1328 14.569 16.4218 15.238 15.2778C15.658 14.5608 16.3329 14.1328 17.0449 14.1328H20.25V18.3828C20.25 19.9598 19.577 20.6328 18 20.6328ZM7.25 10.3828C7.25 9.96881 7.586 9.63281 8 9.63281H16C16.414 9.63281 16.75 9.96881 16.75 10.3828C16.75 10.7968 16.414 11.1328 16 11.1328H8C7.586 11.1328 7.25 10.7968 7.25 10.3828ZM8.25 7.38281C8.25 6.96881 8.586 6.63281 9 6.63281H15C15.414 6.63281 15.75 6.96881 15.75 7.38281C15.75 7.79681 15.414 8.13281 15 8.13281H9C8.586 8.13281 8.25 7.79681 8.25 7.38281Z" fill="#637381"/>
</svg>
