<svg width="15" height="15" viewBox="0 0 15 15" fill="none" xmlns="http://www.w3.org/2000/svg">
<path d="M12.6885 6.10463C12.4284 5.74297 11.8853 5.31248 10.7799 5.31248H8.93888V3.86173C8.93888 3.12907 8.57484 2.4489 7.96526 2.04174C7.61701 1.80957 7.18888 1.75005 6.79105 1.87839C6.39205 2.00672 6.07933 2.30481 5.92708 2.71372L4.68579 6.47915H2.96143C2.23809 6.47915 1.64893 7.06773 1.64893 7.79165V11.875C1.64893 12.5989 2.23809 13.1875 2.96143 13.1875H9.61379C11.0698 13.1875 11.4262 12.4799 11.6893 11.6918L12.8554 8.1918C13.1278 7.3728 13.0683 6.63138 12.6885 6.10463ZM2.52336 11.875V7.79165C2.52336 7.55015 2.71994 7.35415 2.96086 7.35415H4.12752V12.3125H2.96086C2.71994 12.3125 2.52336 12.1165 2.52336 11.875ZM12.0241 7.91473L10.858 11.4147C10.6509 12.0371 10.5209 12.3125 9.61322 12.3125H5.00252V7.35415C5.19152 7.35415 5.35839 7.23281 5.41731 7.05372L6.75138 3.00482C6.80447 2.86424 6.91587 2.75749 7.05879 2.71141C7.2017 2.66474 7.35451 2.68689 7.47934 2.76973C7.84509 3.01356 8.06324 3.4219 8.06324 3.86173V5.74998C8.06324 5.99148 8.25924 6.18748 8.50074 6.18748H10.7792C11.1852 6.18748 11.7231 6.26156 11.9786 6.61622C12.1863 6.90439 12.2038 7.37807 12.0241 7.91473Z" fill="#637381"/>
</svg>
