<svg width="25" height="24" viewBox="0 0 25 24" fill="none" xmlns="http://www.w3.org/2000/svg">
<path d="M10.8621 13.3006C11.2057 13.7599 11.644 14.1399 12.1474 14.4149C12.6507 14.6899 13.2073 14.8535 13.7795 14.8944C14.3516 14.9354 14.9258 14.8529 15.4632 14.6524C16.0006 14.4519 16.4886 14.1382 16.8941 13.7326L19.2941 11.3326C20.0228 10.5781 20.4259 9.56774 20.4168 8.51895C20.4077 7.47017 19.987 6.46692 19.2454 5.72528C18.5038 4.98365 17.5005 4.56298 16.4517 4.55386C15.403 4.54475 14.3925 4.94793 13.6381 5.67656L12.2621 7.04456" stroke="#637381" stroke-width="1.5" stroke-linecap="round" stroke-linejoin="round"/>
<path d="M14.0626 11.7008C13.7191 11.2415 13.2808 10.8614 12.7774 10.5864C12.274 10.3114 11.7174 10.1479 11.1453 10.1069C10.5732 10.0659 9.99899 10.1485 9.46158 10.3489C8.92417 10.5494 8.43617 10.8631 8.03066 11.2688L5.63066 13.6688C4.90203 14.4232 4.49885 15.4336 4.50796 16.4824C4.51708 17.5312 4.93775 18.5344 5.67938 19.276C6.42102 20.0177 7.42427 20.4383 8.47305 20.4475C9.52184 20.4566 10.5323 20.0534 11.2866 19.3248L12.6546 17.9568" stroke="#637381" stroke-width="1.5" stroke-linecap="round" stroke-linejoin="round"/>
</svg>
