<svg width="20" height="20" viewBox="0 0 20 20" fill="none" xmlns="http://www.w3.org/2000/svg">
<path d="M14.1668 1.875H5.8335C3.8185 1.875 2.7085 2.985 2.7085 5V15C2.7085 17.015 3.8185 18.125 5.8335 18.125H14.1668C16.1818 18.125 17.2918 17.015 17.2918 15V5C17.2918 2.985 16.1818 1.875 14.1668 1.875ZM16.0418 15C16.0418 16.3142 15.481 16.875 14.1668 16.875H5.8335C4.51933 16.875 3.9585 16.3142 3.9585 15V5C3.9585 3.68583 4.51933 3.125 5.8335 3.125H14.1668C15.481 3.125 16.0418 3.68583 16.0418 5V15ZM7.29183 6.66667C7.29183 7.01167 7.01183 7.29167 6.66683 7.29167C6.32183 7.29167 6.04183 7.01167 6.04183 6.66667C6.04183 6.32167 6.32183 6.04167 6.66683 6.04167C7.01183 6.04167 7.29183 6.32167 7.29183 6.66667ZM7.29183 10C7.29183 10.345 7.01183 10.625 6.66683 10.625C6.32183 10.625 6.04183 10.345 6.04183 10C6.04183 9.655 6.32183 9.375 6.66683 9.375C7.01183 9.375 7.29183 9.655 7.29183 10ZM7.29183 13.3333C7.29183 13.6783 7.01183 13.9583 6.66683 13.9583C6.32183 13.9583 6.04183 13.6783 6.04183 13.3333C6.04183 12.9883 6.32183 12.7083 6.66683 12.7083C7.01183 12.7083 7.29183 12.9883 7.29183 13.3333ZM13.9585 6.66667C13.9585 7.01167 13.6785 7.29167 13.3335 7.29167H9.16683C8.82183 7.29167 8.54183 7.01167 8.54183 6.66667C8.54183 6.32167 8.82183 6.04167 9.16683 6.04167H13.3335C13.6785 6.04167 13.9585 6.32167 13.9585 6.66667ZM13.9585 10C13.9585 10.345 13.6785 10.625 13.3335 10.625H9.16683C8.82183 10.625 8.54183 10.345 8.54183 10C8.54183 9.655 8.82183 9.375 9.16683 9.375H13.3335C13.6785 9.375 13.9585 9.655 13.9585 10ZM13.9585 13.3333C13.9585 13.6783 13.6785 13.9583 13.3335 13.9583H9.16683C8.82183 13.9583 8.54183 13.6783 8.54183 13.3333C8.54183 12.9883 8.82183 12.7083 9.16683 12.7083H13.3335C13.6785 12.7083 13.9585 12.9883 13.9585 13.3333Z" fill="#637381"/>
</svg>
