<svg width="17" height="17" viewBox="0 0 17 17" fill="none" xmlns="http://www.w3.org/2000/svg">
<path d="M14.4627 4.02271L12.9774 2.53736C12.63 2.19069 12.196 1.99934 11.6787 2C11.188 2.00067 10.7273 2.19271 10.382 2.54004L2.146 10.814C2.052 10.908 2 11.0347 2 11.1667V14.5C2 14.776 2.224 15 2.5 15H5.83333C5.96533 15 6.0927 14.9473 6.18603 14.8547L14.46 6.618C14.8073 6.272 14.9993 5.81137 15 5.32137C15.0007 4.83071 14.8101 4.36937 14.4627 4.02271ZM5.62663 14H3V11.3734L8.99528 5.35067L11.6501 8.00464L5.62663 14ZM13.7547 5.90934L12.3587 7.29932L9.70068 4.64201L11.0907 3.24536C11.248 3.08736 11.4573 3.00067 11.6807 3H11.6813C11.904 3 12.1133 3.08665 12.2713 3.24398L13.7567 4.72933C13.914 4.88733 14.0007 5.09666 14.0007 5.31999C14 5.54265 13.9127 5.75201 13.7547 5.90934Z" fill="white"/>
</svg>
