<svg width="20" height="20" viewBox="0 0 20 20" fill="none" xmlns="http://www.w3.org/2000/svg">
<g clip-path="url(#clip0_941_19159)">
<path fill-rule="evenodd" clip-rule="evenodd" d="M3.33334 4.16667C3.33334 3.50363 3.59674 2.86775 4.06558 2.3989C4.53442 1.93006 5.1703 1.66667 5.83334 1.66667H14.1667C14.8297 1.66667 15.4656 1.93006 15.9344 2.3989C16.4033 2.86775 16.6667 3.50363 16.6667 4.16667V15.8333C16.6667 16.4964 16.4033 17.1323 15.9344 17.6011C15.4656 18.0699 14.8297 18.3333 14.1667 18.3333H5.83334C5.1703 18.3333 4.53442 18.0699 4.06558 17.6011C3.59674 17.1323 3.33334 16.4964 3.33334 15.8333V4.16667ZM5.83334 3.33334C5.61233 3.33334 5.40037 3.42114 5.24409 3.57742C5.08781 3.7337 5.00001 3.94566 5.00001 4.16667V15.8333C5.00001 16.0544 5.08781 16.2663 5.24409 16.4226C5.40037 16.5789 5.61233 16.6667 5.83334 16.6667H14.1667C14.3877 16.6667 14.5997 16.5789 14.7559 16.4226C14.9122 16.2663 15 16.0544 15 15.8333V4.16667C15 3.94566 14.9122 3.7337 14.7559 3.57742C14.5997 3.42114 14.3877 3.33334 14.1667 3.33334H5.83334Z" fill="#637381"/>
<path fill-rule="evenodd" clip-rule="evenodd" d="M5.83334 5.83334C5.83334 5.39131 6.00894 4.96739 6.3215 4.65483C6.63406 4.34227 7.05798 4.16667 7.50001 4.16667H12.5C12.942 4.16667 13.366 4.34227 13.6785 4.65483C13.9911 4.96739 14.1667 5.39131 14.1667 5.83334V11.6667C14.1667 12.1087 13.9911 12.5326 13.6785 12.8452C13.366 13.1577 12.942 13.3333 12.5 13.3333H7.50001C7.05798 13.3333 6.63406 13.1577 6.3215 12.8452C6.00894 12.5326 5.83334 12.1087 5.83334 11.6667V5.83334ZM12.5 5.83334H7.50001V11.6667H12.5V5.83334Z" fill="#637381"/>
<path d="M10.8333 15C10.8333 15.221 10.7455 15.433 10.5892 15.5893C10.433 15.7455 10.221 15.8333 9.99999 15.8333C9.77898 15.8333 9.56701 15.7455 9.41073 15.5893C9.25445 15.433 9.16666 15.221 9.16666 15C9.16666 14.779 9.25445 14.567 9.41073 14.4107C9.56701 14.2545 9.77898 14.1667 9.99999 14.1667C10.221 14.1667 10.433 14.2545 10.5892 14.4107C10.7455 14.567 10.8333 14.779 10.8333 15Z" fill="#637381"/>
</g>
<defs>
<clipPath id="clip0_941_19159">
<rect width="20" height="20" fill="white"/>
</clipPath>
</defs>
</svg>
