<svg width="20" height="20" viewBox="0 0 20 20" fill="none" xmlns="http://www.w3.org/2000/svg">
<g clip-path="url(#clip0_941_19149)">
<path fill-rule="evenodd" clip-rule="evenodd" d="M13.539 10L7.47001 5.68001V14.32L13.539 10ZM7.10601 16.528L15.469 10.68C15.581 10.6054 15.6729 10.5043 15.7364 10.3857C15.7999 10.2671 15.8331 10.1346 15.8331 10C15.8331 9.86544 15.7999 9.73296 15.7364 9.61433C15.6729 9.4957 15.581 9.3946 15.469 9.32001L7.10601 3.47201C6.98277 3.38993 6.83959 3.34279 6.69169 3.33562C6.5438 3.32844 6.39673 3.3615 6.26612 3.43126C6.13552 3.50102 6.02627 3.60489 5.95001 3.73181C5.87374 3.85872 5.83331 4.00394 5.83301 4.15201V15.847C5.83331 15.9951 5.87374 16.1403 5.95001 16.2672C6.02627 16.3941 6.13552 16.498 6.26612 16.5678C6.39673 16.6375 6.5438 16.6706 6.69169 16.6634C6.83959 16.6562 6.98277 16.6101 7.10601 16.528Z" fill="#637381"/>
</g>
<defs>
<clipPath id="clip0_941_19149">
<rect width="20" height="20" fill="white"/>
</clipPath>
</defs>
</svg>
