<svg width="20" height="20" viewBox="0 0 20 20" fill="none" xmlns="http://www.w3.org/2000/svg">
<path d="M8.56897 13.96C8.2773 13.96 7.98568 13.885 7.71651 13.7342C7.16068 13.4225 6.82896 12.8567 6.82896 12.2201V7.77997C6.82896 7.1433 7.16068 6.57756 7.71651 6.26589C8.27568 5.95339 8.93238 5.9659 9.47738 6.30007L13.2099 8.58339C13.7074 8.88839 14.0049 9.4175 14.0049 10.0008C14.0049 10.5842 13.7074 11.1133 13.2099 11.4183L9.47738 13.7016C9.19488 13.8733 8.8823 13.96 8.56897 13.96ZM8.5707 7.29169C8.4607 7.29169 8.37237 7.33075 8.32737 7.35659C8.25237 7.39825 8.07815 7.52414 8.07815 7.77997V12.2201C8.07815 12.4767 8.25237 12.6018 8.32737 12.6435C8.40321 12.686 8.60231 12.7708 8.82481 12.6341L12.5573 10.3508C12.7356 10.2416 12.7549 10.0692 12.7549 10C12.7549 9.93085 12.7356 9.75842 12.5573 9.65009L8.82481 7.36676C8.73398 7.31009 8.64737 7.29169 8.5707 7.29169ZM9.99984 18.9584C5.05984 18.9584 1.0415 14.94 1.0415 10C1.0415 5.06002 5.05984 1.04169 9.99984 1.04169C14.9398 1.04169 18.9582 5.06002 18.9582 10C18.9582 14.94 14.9398 18.9584 9.99984 18.9584ZM9.99984 2.29169C5.749 2.29169 2.2915 5.74919 2.2915 10C2.2915 14.2509 5.749 17.7084 9.99984 17.7084C14.2507 17.7084 17.7082 14.2509 17.7082 10C17.7082 5.74919 14.2507 2.29169 9.99984 2.29169Z" fill="#637381"/>
</svg>
