<svg width="21" height="21" viewBox="0 0 21 21" fill="none" xmlns="http://www.w3.org/2000/svg">
<path d="M17.1095 10.8536C17.1095 11.1986 16.8295 11.4786 16.4845 11.4786H11.2762V16.6869C11.2762 17.0319 10.9962 17.3119 10.6512 17.3119C10.3062 17.3119 10.0262 17.0319 10.0262 16.6869V11.4786H4.81787C4.47287 11.4786 4.19287 11.1986 4.19287 10.8536C4.19287 10.5086 4.47287 10.2286 4.81787 10.2286H10.0262V5.02026C10.0262 4.67526 10.3062 4.39526 10.6512 4.39526C10.9962 4.39526 11.2762 4.67526 11.2762 5.02026V10.2286H16.4845C16.8295 10.2286 17.1095 10.5086 17.1095 10.8536Z" fill="#637381"/>
</svg>
