<svg width="24" height="25" viewBox="0 0 24 25" fill="none" xmlns="http://www.w3.org/2000/svg">
<path d="M18 6.63281H13.311L10.531 3.85281C10.39 3.71181 10.2 3.63281 10.001 3.63281H6.00098C3.58298 3.63281 2.25098 4.96481 2.25098 7.38281V17.3828C2.25098 19.8008 3.58298 21.1328 6.00098 21.1328H18.001C20.419 21.1328 21.751 19.8008 21.751 17.3828V10.3828C21.75 7.96481 20.418 6.63281 18 6.63281ZM20.25 17.3828C20.25 18.9598 19.577 19.6328 18 19.6328H6C4.423 19.6328 3.75 18.9598 3.75 17.3828V7.38281C3.75 5.80581 4.423 5.13281 6 5.13281H9.68896L12.469 7.91281C12.61 8.05381 12.8 8.13281 12.999 8.13281H17.999C19.576 8.13281 20.249 8.80581 20.249 10.3828V17.3828H20.25ZM13.999 15.3208C14.377 14.7438 14.6021 14.0568 14.6021 13.3178C14.6021 11.2958 12.9571 9.65082 10.9351 9.65082C8.91406 9.65082 7.26904 11.2958 7.26904 13.3178C7.26904 15.3398 8.91406 16.9848 10.9351 16.9848C11.6751 16.9848 12.362 16.7608 12.939 16.3818L14.489 17.9318C14.635 18.0778 14.827 18.1518 15.019 18.1518C15.211 18.1518 15.4031 18.0788 15.5491 17.9318C15.8421 17.6388 15.8421 17.1638 15.5491 16.8708L13.999 15.3208ZM8.76904 13.3178C8.76904 12.1228 9.74106 11.1508 10.9351 11.1508C12.1301 11.1508 13.1021 12.1228 13.1021 13.3178C13.1021 14.5128 12.1301 15.4848 10.9351 15.4848C9.74006 15.4848 8.76904 14.5128 8.76904 13.3178Z" fill="#637381"/>
</svg>
