<svg width="24" height="25" viewBox="0 0 24 25" fill="none" xmlns="http://www.w3.org/2000/svg">
<path d="M15.343 11.0758C15.134 10.7268 14.688 10.6068 14.332 10.8048L14.2161 10.8698C14.0701 10.9518 13.8911 10.9508 13.7451 10.8688C13.6101 10.7938 13.5271 10.6568 13.5271 10.5128C13.5271 10.0268 13.1311 9.63181 12.6421 9.63181H11.3081C10.8201 9.63181 10.4231 10.0268 10.4231 10.5128C10.4231 10.6568 10.3401 10.7938 10.2061 10.8688C10.0601 10.9518 9.87889 10.9498 9.73389 10.8698C9.31989 10.6368 8.78199 10.7788 8.54199 11.1868L7.87012 12.3138C7.76812 12.4878 7.72605 12.7918 7.77905 12.9868C7.84005 13.2138 7.99297 13.4098 8.19897 13.5248C8.33297 13.6008 8.41697 13.7378 8.41797 13.8818C8.41797 14.0278 8.33404 14.1648 8.19604 14.2428C7.99005 14.3588 7.83808 14.5568 7.77808 14.7848C7.72608 14.9788 7.77005 15.2828 7.87305 15.4558L8.54297 16.5808C8.78897 16.9908 9.31211 17.1298 9.73511 16.8958C9.88011 16.8148 10.0591 16.8138 10.2041 16.8958C10.2051 16.8958 10.2051 16.8958 10.2051 16.8958C10.3391 16.9708 10.4221 17.1068 10.4221 17.2518C10.4221 17.7378 10.8179 18.1328 11.3069 18.1328H12.6431C13.1301 18.1328 13.5271 17.7378 13.5271 17.2518C13.5271 17.1078 13.6101 16.9718 13.7451 16.8958C13.8911 16.8138 14.0701 16.8138 14.2161 16.8948C14.6361 17.1298 15.1579 16.9928 15.4089 16.5778L16.075 15.4588C16.18 15.2848 16.2241 14.9798 16.1731 14.7828C16.1131 14.5538 15.9599 14.3568 15.7529 14.2408C15.7489 14.2388 15.745 14.2368 15.741 14.2348C15.613 14.1578 15.533 14.0238 15.533 13.8838C15.533 13.7378 15.617 13.5998 15.751 13.5238L15.8669 13.4588C16.0429 13.3598 16.1721 13.1938 16.2241 12.9988C16.2761 12.8038 16.247 12.5948 16.144 12.4218L15.343 11.0758ZM14.5171 15.1448L14.3789 15.3748C13.9199 15.2808 13.428 15.3518 13.009 15.5878C12.593 15.8228 12.2841 16.1978 12.1331 16.6318H11.8191C11.6681 16.1978 11.3601 15.8228 10.9431 15.5878C10.5241 15.3508 10.032 15.2808 9.573 15.3738L9.43604 15.1448C9.74404 14.7988 9.91995 14.3488 9.91895 13.8758C9.91695 13.4088 9.74006 12.9638 9.43506 12.6198L9.573 12.3888C10.036 12.4828 10.5251 12.4108 10.9441 12.1758C11.3601 11.9408 11.6681 11.5668 11.8191 11.1318H12.1331C12.2841 11.5658 12.592 11.9408 13.009 12.1748C13.428 12.4118 13.9199 12.4818 14.3789 12.3888L14.5171 12.6188C14.2101 12.9648 14.0339 13.4128 14.0339 13.8848C14.0339 14.3548 14.2111 14.8008 14.5171 15.1448ZM13.02 13.8828C13.02 14.4348 12.573 14.8828 12.02 14.8828C11.468 14.8828 11.0149 14.4348 11.0149 13.8828C11.0149 13.3308 11.458 12.8828 12.01 12.8828H12.02C12.572 12.8828 13.02 13.3308 13.02 13.8828ZM18 6.63281H13.311L10.531 3.85281C10.39 3.71181 10.2 3.63281 10.001 3.63281H6.00098C3.58298 3.63281 2.25098 4.96481 2.25098 7.38281V17.3828C2.25098 19.8008 3.58298 21.1328 6.00098 21.1328H18.001C20.419 21.1328 21.751 19.8008 21.751 17.3828V10.3828C21.75 7.96481 20.418 6.63281 18 6.63281ZM20.25 17.3828C20.25 18.9598 19.577 19.6328 18 19.6328H6C4.423 19.6328 3.75 18.9598 3.75 17.3828V7.38281C3.75 5.80581 4.423 5.13281 6 5.13281H9.68896L12.469 7.91281C12.61 8.05381 12.8 8.13281 12.999 8.13281H17.999C19.576 8.13281 20.249 8.80581 20.249 10.3828V17.3828H20.25Z" fill="#637381"/>
</svg>
