<svg width="25" height="24" viewBox="0 0 25 24" fill="none" xmlns="http://www.w3.org/2000/svg">
<g opacity="0.48">
<path d="M18.06 21.0002C17.9001 21.0008 17.7424 20.9631 17.6 20.8902L12.5 18.2202L7.40003 20.8902C7.06217 21.0679 6.65263 21.0377 6.34446 20.8124C6.03629 20.5871 5.88327 20.206 5.95003 19.8302L6.95003 14.2002L2.83003 10.2002C2.56809 9.93881 2.47192 9.55412 2.58003 9.2002C2.69828 8.83763 3.01246 8.57387 3.39003 8.5202L9.09003 7.6902L11.6 2.5602C11.7671 2.21521 12.1167 1.99609 12.5 1.99609C12.8834 1.99609 13.2329 2.21521 13.4 2.5602L15.94 7.6802L21.64 8.5102C22.0176 8.56387 22.3318 8.82763 22.45 9.1902C22.5581 9.54412 22.462 9.9288 22.2 10.1902L18.08 14.1902L19.08 19.8202C19.1529 20.203 18.9968 20.5933 18.68 20.8202C18.499 20.9471 18.2809 21.0104 18.06 21.0002Z" fill="#D1D5DB"/>
</g>
</svg>
