<svg width="21" height="20" viewBox="0 0 21 20" fill="none" xmlns="http://www.w3.org/2000/svg">
<path d="M17.8875 4.375H14.9216C14.1708 4.375 14.1391 4.28 13.9333 3.66333L13.7649 3.1575C13.5091 2.39083 12.795 1.875 11.9866 1.875H8.78828C7.97995 1.875 7.26495 2.39 7.00995 3.1575L6.84162 3.66333C6.63579 4.28083 6.60412 4.375 5.85328 4.375H2.88745C2.54245 4.375 2.26245 4.655 2.26245 5C2.26245 5.345 2.54245 5.625 2.88745 5.625H3.96911L4.60829 15.2075C4.73162 17.0617 5.86829 18.125 7.72662 18.125H13.0491C14.9066 18.125 16.0433 17.0617 16.1675 15.2075L16.8066 5.625H17.8875C18.2325 5.625 18.5125 5.345 18.5125 5C18.5125 4.655 18.2325 4.375 17.8875 4.375ZM8.19578 3.5525C8.28161 3.29667 8.51911 3.125 8.78828 3.125H11.9866C12.2558 3.125 12.4941 3.29667 12.5791 3.5525L12.7475 4.05833C12.7841 4.1675 12.8208 4.27333 12.8608 4.375H7.91245C7.95245 4.2725 7.98996 4.16666 8.02662 4.05833L8.19578 3.5525ZM14.9191 15.1242C14.84 16.3183 14.2449 16.875 13.0483 16.875H7.72578C6.52912 16.875 5.93495 16.3192 5.85495 15.1242L5.22162 5.625H5.85245C5.95662 5.625 6.04329 5.61417 6.13662 5.6075C6.16495 5.61167 6.19078 5.625 6.21995 5.625H14.5533C14.5833 5.625 14.6083 5.61167 14.6366 5.6075C14.7299 5.61417 14.8166 5.625 14.9208 5.625H15.5516L14.9191 15.1242ZM12.6791 9.16667V13.3333C12.6791 13.6783 12.3991 13.9583 12.0541 13.9583C11.7091 13.9583 11.4291 13.6783 11.4291 13.3333V9.16667C11.4291 8.82167 11.7091 8.54167 12.0541 8.54167C12.3991 8.54167 12.6791 8.82167 12.6791 9.16667ZM9.34578 9.16667V13.3333C9.34578 13.6783 9.06578 13.9583 8.72078 13.9583C8.37578 13.9583 8.09578 13.6783 8.09578 13.3333V9.16667C8.09578 8.82167 8.37578 8.54167 8.72078 8.54167C9.06578 8.54167 9.34578 8.82167 9.34578 9.16667Z" fill="#637381"/>
</svg>
