<svg width="24" height="25" viewBox="0 0 24 25" fill="none" xmlns="http://www.w3.org/2000/svg">
<path d="M18 6.63281H13.311L10.531 3.85281C10.39 3.71181 10.2 3.63281 10.001 3.63281H6.00098C3.58298 3.63281 2.25098 4.96481 2.25098 7.38281V17.3828C2.25098 19.8008 3.58298 21.1328 6.00098 21.1328H18.001C20.419 21.1328 21.751 19.8008 21.751 17.3828V10.3828C21.75 7.96481 20.418 6.63281 18 6.63281ZM20.25 17.3828C20.25 18.9598 19.577 19.6328 18 19.6328H6C4.423 19.6328 3.75 18.9598 3.75 17.3828V7.38281C3.75 5.80581 4.423 5.13281 6 5.13281H9.68896L12.469 7.91281C12.61 8.05381 12.8 8.13281 12.999 8.13281H17.999C19.576 8.13281 20.249 8.80581 20.249 10.3828V17.3828H20.25ZM12.03 12.8528C12.323 13.1458 12.323 13.6208 12.03 13.9138C11.884 14.0598 11.692 14.1338 11.5 14.1338C11.308 14.1338 11.116 14.0608 10.97 13.9138L10.25 13.1938V16.3828C10.25 16.7968 9.914 17.1328 9.5 17.1328C9.086 17.1328 8.75 16.7968 8.75 16.3828V13.1938L8.03003 13.9138C7.73703 14.2068 7.26199 14.2068 6.96899 13.9138C6.67599 13.6208 6.67599 13.1458 6.96899 12.8528L8.96899 10.8528C9.03799 10.7838 9.12089 10.7288 9.21289 10.6908C9.39589 10.6148 9.60289 10.6148 9.78589 10.6908C9.87789 10.7288 9.96103 10.7838 10.03 10.8528L12.03 12.8528Z" fill="#637381"/>
</svg>
