<svg width="24" height="25" viewBox="0 0 24 25" fill="none" xmlns="http://www.w3.org/2000/svg">
<path d="M15.553 22.1328H8.448C6.243 22.1328 5.02795 20.9248 5.02795 18.7328C5.02795 16.3288 6.38802 13.5219 10.223 13.5219H13.778C17.613 13.5219 18.973 16.3288 18.973 18.7328C18.973 20.9248 17.758 22.1328 15.553 22.1328ZM10.223 15.0219C6.79402 15.0219 6.52795 17.8618 6.52795 18.7328C6.52795 20.0828 7.085 20.6328 8.448 20.6328H15.553C16.916 20.6328 17.473 20.0818 17.473 18.7328C17.473 17.8618 17.206 15.0219 13.778 15.0219H10.223ZM12.0081 12.1448C9.93706 12.1448 8.25195 10.4598 8.25195 8.38879C8.25195 6.31779 9.93706 4.63281 12.0081 4.63281C14.0791 4.63281 15.765 6.31779 15.765 8.38879C15.765 10.4598 14.0791 12.1448 12.0081 12.1448ZM12.0081 6.13281C10.7641 6.13281 9.75195 7.14479 9.75195 8.38879C9.75195 9.63279 10.7641 10.6448 12.0081 10.6448C13.2521 10.6448 14.265 9.63279 14.265 8.38879C14.265 7.14479 13.2521 6.13281 12.0081 6.13281ZM22.75 13.0328C22.75 11.0568 21.525 9.06287 18.79 9.06287H17.8199C17.4059 9.06287 17.0699 9.39887 17.0699 9.81287C17.0699 10.2269 17.4059 10.5629 17.8199 10.5629H18.79C21.011 10.5629 21.25 12.2898 21.25 13.0328C21.25 13.8968 20.9409 14.2028 20.0699 14.2028H19.71C19.296 14.2028 18.96 14.5388 18.96 14.9528C18.96 15.3668 19.296 15.7028 19.71 15.7028H20.0699C21.7729 15.7028 22.75 14.7298 22.75 13.0328ZM18.099 8.41785C19.45 8.14585 20.4301 6.93986 20.4301 5.55286C20.4301 3.94286 19.12 2.63281 17.51 2.63281C16.749 2.63281 16.041 2.91478 15.517 3.42578C15.22 3.71478 15.2141 4.18982 15.5031 4.48682C15.7911 4.78382 16.268 4.78985 16.564 4.50085C16.807 4.26385 17.143 4.13379 17.51 4.13379C18.293 4.13379 18.9301 4.77083 18.9301 5.55383C18.9301 6.22983 18.455 6.81685 17.802 6.94885C17.396 7.03085 17.133 7.42676 17.215 7.83276C17.287 8.18876 17.6 8.43481 17.949 8.43481C17.999 8.43281 18.049 8.42785 18.099 8.41785ZM5.03003 14.9528C5.03003 14.5388 4.69403 14.2028 4.28003 14.2028H3.92896C3.05796 14.2028 2.74902 13.8968 2.74902 13.0328C2.74902 12.2898 2.98798 10.5629 5.20898 10.5629H6.19897C6.61297 10.5629 6.94897 10.2269 6.94897 9.81287C6.94897 9.39887 6.61297 9.06287 6.19897 9.06287H5.20898C2.28598 9.06287 1.24902 11.2018 1.24902 13.0328C1.24902 14.7298 2.22596 15.7028 3.92896 15.7028H4.28003C4.69403 15.7028 5.03003 15.3668 5.03003 14.9528ZM6.80603 7.83081C6.88803 7.42481 6.62499 7.02878 6.21899 6.94678C5.55899 6.81378 5.07996 6.22776 5.07996 5.55176C5.07996 4.76876 5.72201 4.13184 6.51001 4.13184C6.87001 4.13184 7.20894 4.26484 7.46594 4.50684C7.76694 4.79184 8.241 4.77781 8.526 4.47681C8.811 4.17581 8.79697 3.70087 8.49597 3.41687C7.96097 2.91087 7.25599 2.63184 6.51099 2.63184C4.89599 2.63184 3.58105 3.94176 3.58105 5.55176C3.58105 6.93776 4.56597 8.14287 5.92297 8.41687C5.97297 8.42687 6.02302 8.43176 6.07202 8.43176C6.42102 8.43276 6.73303 8.18681 6.80603 7.83081Z" fill="#637381"/>
</svg>
