<svg width="48" height="48" viewBox="0 0 48 48" fill="none" xmlns="http://www.w3.org/2000/svg">
<rect width="48" height="48" rx="24" fill="#F3F4F6"/>
<path d="M31 33.5V31.5C31 30.4391 30.5786 29.4217 29.8284 28.6716C29.0783 27.9214 28.0609 27.5 27 27.5H21C19.9391 27.5 18.9217 27.9214 18.1716 28.6716C17.4214 29.4217 17 30.4391 17 31.5V33.5" stroke="#637381" stroke-width="2" stroke-linecap="round" stroke-linejoin="round"/>
<path d="M24 23.5C26.2091 23.5 28 21.7091 28 19.5C28 17.2909 26.2091 15.5 24 15.5C21.7909 15.5 20 17.2909 20 19.5C20 21.7091 21.7909 23.5 24 23.5Z" stroke="#637381" stroke-width="2" stroke-linecap="round" stroke-linejoin="round"/>
</svg>
