<svg width="24" height="25" viewBox="0 0 24 25" fill="none" xmlns="http://www.w3.org/2000/svg">
<path d="M18.75 6.67981V6.38281C18.75 3.96481 17.418 2.63281 15 2.63281H5C3.483 2.63281 2.25 3.86581 2.25 5.38281V18.3828C2.25 20.8008 3.582 22.1328 6 22.1328H18C20.418 22.1328 21.75 20.8008 21.75 18.3828V10.3828C21.75 8.22781 20.692 6.93581 18.75 6.67981ZM20.25 16.1328H16.5C15.535 16.1328 14.75 15.3478 14.75 14.3828C14.75 13.4178 15.535 12.6328 16.5 12.6328H20.25V16.1328ZM5 4.13281H15C16.577 4.13281 17.25 4.80581 17.25 6.38281V6.63281H5C4.311 6.63281 3.75 6.07181 3.75 5.38281C3.75 4.69381 4.311 4.13281 5 4.13281ZM18 20.6328H6C4.423 20.6328 3.75 19.9598 3.75 18.3828V7.83179C4.125 8.02379 4.55 8.13281 5 8.13281H18C19.577 8.13281 20.25 8.80581 20.25 10.3828V11.1328H16.5C14.708 11.1328 13.25 12.5908 13.25 14.3828C13.25 16.1748 14.708 17.6328 16.5 17.6328H20.25V18.3828C20.25 19.9598 19.577 20.6328 18 20.6328ZM17.01 13.3828H17.02C17.573 13.3828 18.02 13.8308 18.02 14.3828C18.02 14.9348 17.573 15.3828 17.02 15.3828C16.468 15.3828 16.015 14.9348 16.015 14.3828C16.015 13.8308 16.458 13.3828 17.01 13.3828Z" fill="#637381"/>
</svg>
