<svg width="20" height="20" viewBox="0 0 20 20" fill="none" xmlns="http://www.w3.org/2000/svg">
<g clip-path="url(#clip0_941_19166)">
<path d="M15.293 10.78C15.0866 10.8576 14.8579 10.8503 14.657 10.7595C14.456 10.6688 14.2993 10.5021 14.221 10.296C14.221 10.296 13.16 7.50001 10.001 7.50001C6.84101 7.50001 5.77901 10.296 5.77901 10.296C5.74033 10.3984 5.68187 10.4921 5.60697 10.5719C5.53207 10.6517 5.44218 10.7159 5.34245 10.7609C5.24272 10.806 5.1351 10.8309 5.02573 10.8344C4.91635 10.8378 4.80737 10.8197 4.70501 10.781C4.60264 10.7423 4.5089 10.6839 4.42912 10.609C4.34935 10.5341 4.28511 10.4442 4.24007 10.3445C4.19504 10.2447 4.17009 10.1371 4.16664 10.0277C4.1632 9.91835 4.18133 9.80937 4.22001 9.70701C4.21201 9.73001 4.34001 9.40401 4.52801 9.07101C4.72801 8.71401 5.04001 8.23901 5.48601 7.76301C6.38801 6.80101 7.84601 5.83301 10 5.83301C12.155 5.83301 13.613 6.80101 14.514 7.76301C15.0477 8.33122 15.4766 8.98936 15.781 9.70701C15.8195 9.8095 15.8374 9.91857 15.8337 10.028C15.83 10.1374 15.8047 10.245 15.7594 10.3447C15.7141 10.4443 15.6496 10.5341 15.5695 10.6088C15.4895 10.6835 15.3955 10.7417 15.293 10.78ZM11.667 15C11.6725 15.2223 11.6334 15.4434 11.5521 15.6504C11.4708 15.8573 11.3489 16.0459 11.1936 16.2051C11.0383 16.3642 10.8528 16.4907 10.6479 16.577C10.443 16.6634 10.2229 16.7078 10.0005 16.7078C9.77816 16.7078 9.55805 16.6634 9.35315 16.577C9.14826 16.4907 8.9627 16.3642 8.80741 16.2051C8.65212 16.0459 8.53024 15.8573 8.44894 15.6504C8.36764 15.4434 8.32856 15.2223 8.33401 15C8.34466 14.5651 8.52492 14.1516 8.83628 13.8477C9.14765 13.5439 9.56546 13.3738 10.0005 13.3738C10.4356 13.3738 10.8534 13.5439 11.1647 13.8477C11.4761 14.1516 11.6564 14.5651 11.667 15Z" fill="#637381"/>
<path d="M11.72 11.96C11.789 12.1423 11.9197 12.2947 12.0895 12.3907C12.2592 12.4867 12.4571 12.5202 12.649 12.4854C12.8408 12.4505 13.0144 12.3496 13.1395 12.2001C13.2647 12.0506 13.3335 11.862 13.334 11.667C13.334 11.426 13.214 11.203 13.1 10.997C12.9503 10.7317 12.7693 10.4853 12.561 10.263C12.2348 9.91126 11.8384 9.63196 11.3974 9.44316C10.9564 9.25436 10.4807 9.16027 10.001 9.16699C8.78301 9.16699 7.95101 9.71799 7.43901 10.263C7.14101 10.581 6.87501 10.963 6.72001 11.373C6.67219 11.4991 6.65574 11.6349 6.67209 11.7688C6.68843 11.9027 6.73707 12.0306 6.81383 12.1415C6.89058 12.2524 6.99314 12.343 7.11268 12.4054C7.23221 12.4679 7.36514 12.5003 7.50001 12.5C7.87501 12.5 8.14101 12.265 8.29001 11.94C8.32601 11.86 8.44601 11.626 8.65501 11.403C8.92501 11.115 9.34201 10.833 10 10.833C10.658 10.833 11.075 11.115 11.345 11.403C11.588 11.663 11.712 11.941 11.722 11.966L11.721 11.962L11.72 11.96Z" fill="#637381"/>
<path fill-rule="evenodd" clip-rule="evenodd" d="M18.334 8.333C18.334 8.649 18.097 9.167 17.5 9.167C16.904 9.167 16.721 8.628 16.721 8.628C16.721 8.628 16.514 8.176 16.393 7.961C16.076 7.3981 15.693 6.87507 15.252 6.403C14.2 5.282 12.534 4.167 10 4.167C7.467 4.167 5.8 5.282 4.75 6.403C4.3087 6.87505 3.92532 7.39808 3.608 7.961C3.48528 8.17481 3.37639 8.39626 3.282 8.624C3.2219 8.783 3.11498 8.92003 2.97535 9.01698C2.83573 9.11393 2.66998 9.16624 2.5 9.167C2.27932 9.16594 2.06801 9.07768 1.91215 8.92144C1.75629 8.76521 1.66852 8.55368 1.668 8.333C1.668 7.901 1.947 7.513 2.155 7.143C2.53781 6.46368 3.00042 5.83254 3.533 5.263C4.826 3.885 6.91 2.5 10.001 2.5C13.092 2.5 15.176 3.885 16.468 5.263C17.0006 5.83254 17.4632 6.46368 17.846 7.143C18.04 7.488 18.334 7.925 18.334 8.333Z" fill="#637381"/>
</g>
<defs>
<clipPath id="clip0_941_19166">
<rect width="20" height="20" fill="white"/>
</clipPath>
</defs>
</svg>
