<svg width="24" height="25" viewBox="0 0 24 25" fill="none" xmlns="http://www.w3.org/2000/svg">
<path d="M17 3.63281H12.311L10.531 1.85281C10.39 1.71181 10.2 1.63281 10.001 1.63281H7.00098C4.58298 1.63281 3.25098 2.96481 3.25098 5.38281V12.3828C3.25098 14.8008 4.58298 16.1328 7.00098 16.1328H11.251V17.7498C10.34 18.0098 9.62792 18.7218 9.36792 19.6328H5C4.586 19.6328 4.25 19.9688 4.25 20.3828C4.25 20.7968 4.586 21.1328 5 21.1328H9.36694C9.69594 22.2828 10.745 23.1328 12 23.1328C13.255 23.1328 14.3041 22.2828 14.6331 21.1328H19C19.414 21.1328 19.75 20.7968 19.75 20.3828C19.75 19.9688 19.414 19.6328 19 19.6328H14.6331C14.3731 18.7218 13.661 18.0098 12.75 17.7498V16.1328H17C19.418 16.1328 20.75 14.8008 20.75 12.3828V7.38281C20.75 4.96481 19.418 3.63281 17 3.63281ZM13.25 20.3828C13.25 21.0718 12.689 21.6328 12 21.6328C11.311 21.6328 10.75 21.0718 10.75 20.3828C10.75 19.6938 11.311 19.1328 12 19.1328C12.689 19.1328 13.25 19.6938 13.25 20.3828ZM19.25 12.3828C19.25 13.9598 18.577 14.6328 17 14.6328H7C5.423 14.6328 4.75 13.9598 4.75 12.3828V5.38281C4.75 3.80581 5.423 3.13281 7 3.13281H9.68896L11.469 4.91281C11.61 5.05381 11.8 5.13281 11.999 5.13281H16.999C18.576 5.13281 19.249 5.80581 19.249 7.38281V12.3828H19.25Z" fill="#637381"/>
</svg>
