<svg width="21" height="21" viewBox="0 0 21 21" fill="none" xmlns="http://www.w3.org/2000/svg">
<path d="M10.6515 18.4784C10.5632 18.4784 10.4748 18.46 10.3923 18.4225C10.1198 18.2984 3.70651 15.3242 2.67818 10.0276C2.28068 7.9784 2.67985 5.97922 3.74568 4.68089C4.60818 3.62922 5.84814 3.07004 7.33231 3.06254C7.33981 3.06254 7.34731 3.06254 7.35398 3.06254C9.04731 3.06254 10.0799 4.02673 10.6507 4.84757C11.224 4.0234 12.2648 3.05504 13.969 3.06254C15.454 3.07004 16.6948 3.62922 17.5581 4.68089C18.6223 5.97839 19.0206 7.97755 18.6223 10.0284C17.5956 15.3251 11.1815 18.3001 10.909 18.4234C10.8281 18.4601 10.7398 18.4784 10.6515 18.4784ZM7.35316 4.31173C7.34816 4.31173 7.34402 4.31173 7.33902 4.31173C6.22402 4.31673 5.34071 4.70755 4.71238 5.47338C3.87988 6.48755 3.57903 8.10089 3.9057 9.78923C4.70153 13.8926 9.479 16.5592 10.6515 17.1575C11.824 16.5592 16.6015 13.8926 17.3965 9.78923C17.7248 8.10006 17.424 6.48671 16.5932 5.47338C15.9648 4.70838 15.0815 4.31838 13.964 4.31254C13.959 4.31254 13.954 4.31254 13.9498 4.31254C11.9732 4.31254 11.2724 6.2934 11.2441 6.37757C11.1574 6.63007 10.919 6.80171 10.6523 6.80171C10.6507 6.80171 10.6498 6.80171 10.649 6.80171C10.3815 6.80088 10.1431 6.63005 10.0581 6.37589C10.0306 6.29255 9.329 4.31173 7.35316 4.31173Z" fill="white"/>
</svg>
