<svg width="24" height="24" viewBox="0 0 24 24" fill="none" xmlns="http://www.w3.org/2000/svg">
<path d="M21.176 9.6078C20.73 8.9878 19.7991 8.24983 17.9041 8.24983H14.748V5.76283C14.748 4.50683 14.124 3.34084 13.079 2.64284C12.482 2.24484 11.748 2.14281 11.066 2.36281C10.382 2.58281 9.84596 3.09381 9.58496 3.79481L7.45703 10.2498H4.50098C3.26098 10.2498 2.25098 11.2588 2.25098 12.4998V19.4998C2.25098 20.7408 3.26098 21.7498 4.50098 21.7498H15.905C18.401 21.7498 19.012 20.5368 19.463 19.1858L21.462 13.1858C21.929 11.7818 21.827 10.5108 21.176 9.6078ZM3.75 19.4998V12.4998C3.75 12.0858 4.087 11.7498 4.5 11.7498H6.5V20.2498H4.5C4.087 20.2498 3.75 19.9138 3.75 19.4998ZM20.037 12.7108L18.038 18.7108C17.683 19.7778 17.4601 20.2498 15.9041 20.2498H8V11.7498C8.324 11.7498 8.61006 11.5418 8.71106 11.2348L10.998 4.29384C11.089 4.05284 11.28 3.86985 11.525 3.79085C11.77 3.71085 12.032 3.74882 12.246 3.89082C12.873 4.30882 13.2469 5.00883 13.2469 5.76283V8.99983C13.2469 9.41383 13.5829 9.74983 13.9969 9.74983H17.903C18.599 9.74983 19.521 9.87682 19.959 10.4848C20.315 10.9788 20.345 11.7908 20.037 12.7108Z" fill="#0F9918"/>
</svg>
